/* XPM */
static char *back_xpm[] = {
/* columns rows colors chars-per-pixel */
"64 64 202 2 ",
"   c #010201",
".  c #080402",
"X  c #070906",
"o  c #0A0A06",
"O  c #0B0D0A",
"+  c #050809",
"@  c #150600",
"#  c #140B02",
"$  c #1B0D01",
"%  c #1A0600",
"&  c #0F100D",
"*  c #14120C",
"=  c #1D140B",
"-  c #1F1104",
";  c #131513",
":  c #1B1C1A",
">  c #1B1814",
",  c #220F00",
"<  c #221407",
"1  c #291604",
"2  c #231508",
"3  c #2E1D0C",
"4  c #2A1708",
"5  c #311F0D",
"6  c #1F201D",
"7  c #32200F",
"8  c #2D2013",
"9  c #352413",
"0  c #382717",
"q  c #3A2C1B",
"w  c #32251B",
"e  c #242522",
"r  c #2A2A27",
"t  c #2C2D2A",
"y  c #272927",
"u  c #3B2F24",
"i  c #322F2C",
"p  c #342D21",
"a  c #3C3026",
"s  c #30312F",
"d  c #3C342C",
"f  c #333432",
"g  c #383937",
"h  c #3B3C3A",
"j  c #30393C",
"k  c #513922",
"l  c #463626",
"z  c #3F403D",
"x  c #47423D",
"c  c #574836",
"v  c #764F2E",
"b  c #69553D",
"n  c #454543",
"m  c #474846",
"M  c #494947",
"N  c #4C4C4A",
"B  c #594F46",
"V  c #504740",
"C  c #53514C",
"Z  c #5B5148",
"A  c #5A5047",
"S  c #43515A",
"D  c #545452",
"F  c #595A57",
"G  c #5C5C5A",
"H  c #675644",
"J  c #695C50",
"K  c #61625F",
"L  c #7F664A",
"P  c #4B5A62",
"I  c #526876",
"U  c #646462",
"Y  c #696966",
"T  c #6C6C6A",
"R  c #74716C",
"E  c #757573",
"W  c #797976",
"Q  c #7D7D7B",
"!  c #787774",
"~  c #6C787E",
"^  c #895C36",
"/  c #875A33",
"(  c #8D603A",
")  c #A36837",
"_  c #8A6C4C",
"`  c #876849",
"'  c #90704F",
"]  c #917252",
"[  c #86715A",
"{  c #A86F40",
"}  c #A7754B",
"|  c #AE7D51",
" . c #807F7D",
".. c #AB845E",
"X. c #81817F",
"o. c #8C837B",
"O. c #B88D63",
"+. c #BE9470",
"@. c #A78562",
"#. c #D98745",
"$. c #D78645",
"%. c #D18F56",
"&. c #DD985E",
"*. c #C98D5A",
"=. c #E49A5E",
"-. c #EB9550",
";. c #C29769",
":. c #DF9A60",
">. c #E89E61",
",. c #DDA977",
"<. c #DBA675",
"1. c #EAA063",
"2. c #F4A462",
"3. c #FBAB6A",
"4. c #FCA865",
"5. c #FFB06D",
"6. c #EBAF7E",
"7. c #E5AB79",
"8. c #E8B17B",
"9. c #F4B87F",
"0. c #F4B67E",
"q. c #767D80",
"w. c #858482",
"e. c #898886",
"r. c #8C8C8A",
"t. c #908F8D",
"y. c #91918F",
"u. c #949392",
"i. c #9D9D9C",
"p. c #A8A29D",
"a. c #BAAB9B",
"s. c #83A6BF",
"d. c #A4A4A1",
"f. c #A8A7A5",
"g. c #ADADAA",
"h. c #A9A9A7",
"j. c #B0AFAD",
"k. c #B1B1AE",
"l. c #BAB9B7",
"z. c #BCBBBA",
"x. c #B7B5B2",
"c. c #F7B981",
"v. c #C0BFBD",
"b. c #FFC185",
"n. c #FFC388",
"m. c #FFCB8D",
"M. c #C5C2BE",
"N. c #DAC5B2",
"B. c #E6D2BF",
"V. c #84ABC7",
"C. c #84ACC9",
"Z. c #8DB4D0",
"A. c #97BCD6",
"S. c #C4C4C2",
"D. c #C9C8C6",
"F. c #CDCDCB",
"G. c #C7C8C8",
"H. c #D0CECB",
"J. c #D1D0CE",
"K. c #CAD7DE",
"L. c #D5D4D3",
"P. c #D8D7D5",
"I. c #DAD9D7",
"U. c #DCDBDA",
"Y. c #D6DADB",
"T. c #C4CED4",
"R. c #E8D4C2",
"E. c #F3D9C4",
"W. c #F4DDC9",
"Q. c #E0DFDD",
"!. c #E3E1DF",
"~. c #FFE8D3",
"^. c #F8E1CD",
"/. c #CFDAE2",
"(. c #D8E2E9",
"). c #D9E7F0",
"_. c #E6E3E0",
"`. c #E5E4E2",
"'. c #E8E6E4",
"]. c #EAE9E6",
"[. c #EDECEB",
"{. c #F0EFEC",
"}. c #EDF0F2",
"|. c #F5F4F2",
" X c #F8F7F4",
".X c #F8F7F4",
"XX c #FAF9F6",
"oX c #FAF9F6",
"OX c #FCFBF8",
"+X c #FDFBF9",
"@X c #FCFBF8",
"#X c #FCFBFB",
"$X c #FDFCF9",
"%X c #FEFCFA",
"&X c #FEFDFA",
"*X c #FFFDFB",
"=X c #FEFDFA",
"-X c #FFFEFC",
";X c white",
":X c #FEFEFE",
">X c gray99",
",X c #FEFCFA",
/* pixels */
"%X%X%X%X%X%X%X%X%X%X%X%X%X%X%X%X%X%X%X%X%X%X%X%X%X%X%X%X%X%X%X%X%X%X%X%X%X%X%X%X%X%X%X%X%X%X%X%X%X%X%X%X%X%X%X%X%X%X%X%X%X%X%X%X",
"%X%X%X%X%X%X%X%X%X%X%X%X%X%X%X%X%X%X%X%X%X%X%X%X%X%X%X%X%X%X%X%X%X%X%X%X%X%X%X%X%X%X%X%X%X%X%X%X%X%X%X%X%X%X%X%X%X%X%X%X%X%X%X%X",
"%X%X%X%X%X%X%X%X%X%X%X%X%X%X%X%X%X%X%X%X%X%X%X%X%X%XOXOXOXOXOXOXOXOXOXOXOXOXOX%X%X%X%X%X%X%X%X%X%X%X%X%X%X%X%X%X%X%X%X%X%X%X%X%X",
"%X%X%X%X%X%X%X%X%X%X%X%X%X%X%X%X%X%X%X%X%X%X%X%X%X%X;X;X;X;X;X;X;X;X;X;X;X;X;X%X%X%X%X%X%X%X%X%X%X%X%X%X%X%X%X%X%X%X%X%X%X%X%X%X",
"%X%X%X%X%X%X%X%X%X%X%X%X%X%X%X%X%X%X%X%X%X%X%X%XOX X_.!._._._._.!.!.!._.!.!.'.oXOX%X%X%X%X%X%X%X%X%X%X%X%X%X%X%X%X%X%X%X%X%X%X%X",
"%X%X%X%X%X%X%X%X%X%X%X%X%X%X%X%X%X%X%X%X%X%X%XOX;X!.0 9 9 9 9 9 9 9 9 9 0 3 c ;X;X%X%X%X%X%X%X%X%X%X%X%X%X%X%X%X%X%X%X%X%X%X%X%X",
"%X%X%X%X%X%X%X%X%X%X%X%X%X%X%X%X%X%X%X%X%XOXOX{.M.p.5 3 5 3 3 3 3 3 3 3 5 1 l x.H.;X%X%X%X%X%X%X%X%X%X%X%X%X%X%X%X%X%X%X%X%X%X%X",
"%X%X%X%X%X%X%X%X%X%X%X%X%X%X%X%X%X%X%X%X%XOX;XU.1 1 7 5 5 5 5 5 5 5 5 5 5 7 7 % H ;XoX%X%X%X%X%X%X%X%X%X%X%X%X%X%X%X%X%X%X%X%X%X",
"%X%X%X%X%X%X%X%X%X%X%X%X%X%X%X%X%X%X%X%X%X{.p.o.9 7 5 5 5 5 5 5 5 5 5 5 5 5 9 1 J ;XoX%X%X%X%X%X%X%X%X%X%X%X%X%X%X%X%X%X%X%X%X%X",
"%X%X%X%X%X%X%X%X%X%X%X%X%X%X%X%X%X%X%XOX;X'.4 , 5 5 5 5 5 5 5 5 5 5 5 5 5 5 9 1 J ;X%X%X%X%X%X%X%X%X%X%X%X%X%X%X%X%X%X%X%X%X%X%X",
"%X%X%X%X%X%X%X%X%X%X%X%X%X%X%X%X%X%X%XoXR Z 9 9 5 5 5 5 5 5 5 5 5 5 5 5 5 5 5 3 u A o.;XOX%X%X%X%X%X%X%X%X%X%X%X%X%X%X%X%X%X%X%X",
"%X%X%X%X%X%X%X%X%X%X%X%X%X%X%X%X%X%X;X Xw @ 5 5 5 5 5 5 5 5 5 5 5 5 5 5 5 5 5 7 3 . V ;XOX%X%X%X%X%X%X%X%X%X%X%X%X%X%X%X%X%X%X%X",
"%X%X%X%X%X%X%X%X%X%X%X%X%X%X%X%X%X%X;X Xd - 5 5 5 5 5 5 5 5 5 5 5 5 5 5 5 5 5 5 3 $ Z ;XOX%X%X%X%X%X%X%X%X%X%X%X%X%X%X%X%X%X%X%X",
"%X%X%X%X%X%X%X%X%X%X%X%X%X%X%X%X%X%X;X Xa $ 5 5 5 5 5 5 5 5 5 5 5 5 5 5 5 5 5 5 3 @ B ;XOX%X%X%X%X%X%X%X%X%X%X%X%X%X%X%X%X%X%X%X",
"%X%X%X%X%X%X%X%X%X%X%X%X%X%X%X%X%X%X;X Xa $ 7 5 5 5 5 5 5 5 5 5 5 5 5 5 5 5 5 5 3 @ B ;XOX%X%X%X%X%X%X%X%X%X%X%X%X%X%X%X%X%X%X%X",
"%X%X%X%X%X%X%X%X%X%X%X%X%X%X%X%X%X%X;X Xa $ 5 5 5 5 5 5 5 5 5 5 5 5 5 5 5 5 5 5 3 @ B ;XoX%X%X%X%X%X%X%X%X%X%X%X%X%X%X%X%X%X%X%X",
"%X%X%X%X%X%X%X%X%X%X%X%X%X%X%X%X%X%X%X Xa $ 2 2 5 5 5 5 5 5 5 5 5 5 5 5 5 5 5 7 3 @ B ;X%X%X%X%X%X%X%X%X%X%X%X%X%X%X%X%X%X%X%X%X",
"%X%X%X%X%X%X%X%X%X%X%X%X%X%X%X%X%X%X%X Xu # < 2 5 5 5 5 5 5 5 5 5 5 5 5 5 5 5 3 3 $ x F.'.;XOX%X%X%X%X%X%X%X%X%X%X%X%X%X%X%X%X%X",
"%X%X%X%X%X%X%X%X%X%X%X%X%X%X%X%X%X%X;X|.e X < 2 5 5 5 5 5 5 5 5 5 5 5 5 5 7 3 < < < =   r.;XoX%X%X%X%X%X%X%X%X%X%X%X%X%X%X%X%X%X",
"%X%X%X%X%X%X%X%X%X%X%X%X%X%X%X%X%X%X;X|.e X < 2 3 3 5 5 5 5 5 5 5 5 5 5 5 3 3 < < < 2   r.;XoX%X%X%X%X%X%X%X%X%X%X%X%X%X%X%X%X%X",
"%X%X%X%X%X%X%X%X%X%X%X%X%X%X%X%X%XOX;X|.e X < < < 2 5 5 5 5 5 5 5 5 5 5 3 < < 2 < < 2   r.;XoX%X%X%X%X%X%X%X%X%X%X%X%X%X%X%X%X%X",
"%X%X%X%X%X%X%X%X%X%X%X%X%X%X%X%X%XOX;X|.y o < < < 2 3 3 3 3 3 3 3 3 3 3 3 < < < < < 2   r.;XoX%X%X%X%X%X%X%X%X%X%X%X%X%X%X%X%X%X",
"%X%X%X%X%X%X%X%X%X%X%X%X%X%X%X%X%XOX;X|.:   2 2 < < < < < < < < < < < < < < < < < 2 =   e.;XoX%X%X%X%X%X%X%X%X%X%X%X%X%X%X%X%X%X",
"%X%X%X%X%X%X%X%X%X%X%X%X%X%X%X%X%X%X%X XW F > = < < < < < < < < < < < < < < < < < * i Y l.;XoX%X%X%X%X%X%X%X%X%X%X%X%X%X%X%X%X%X",
"%X%X%X%X%X%X%X%X%X%X%X%X%X%X%X%X%X%X%XOX;X_.+   2 2 < < < < < < < < < < < < < 2 =   n ;XOX%X%X%X%X%X%X%X%X%X%X%X%X%X%X%X%X%X%X%X",
"%X%X%X%X%X%X%X%X%X%X%X%X%X%X%X%X%X%X%XOX%X].Q U = = < < 2 2 2 2 2 2 2 2 2 < < # d w.p.%XoX%X%X%X%X%X%X%X%X%X%X%X%X%X%X%X%X%X%X%X",
"%X%X%X%X%X%X%X%X%X%X%X%X%X%X%X%X%X%X%X%X%XOX;XP.  . 2 < # # # # # # # # # 2 =   M ;XOX%X%X%X%X%X%X%X%X%X%X%X%X%X%X%X%X%X%X%X%X%X",
"%X%X%X%X%X%X%X%X%X%X%X%X%X%X%X%X%X%X%X%X%XOXOX'.u.W O 8 ( ^ ^ ^ ^ / / ^ v o t r.g.OX X%X%X%X%X%X%X%X%X%X%X%X%X%X%X%X%X%X%X%X%X%X",
"%X%X%X%X%X%X%X%X%X%X%X%X%X%X%X%X%X%X%X%X%X%X;X;X;XI.  q 5.3.3.3.4.2.2.4.%.  h ;X;X;X;X%X%X%X%X%X%X%X%X%X%X%X%X%X%X%X%X%X%X%X%X%X",
"%X%X%X%X%X%X%X%X%X%X%X%X%X%X%X%X%X%X%XOX;X].m h h f X * q q q q q q q q w o ; g h f R ;XOX%X%X%X%X%X%X%X%X%X%X%X%X%X%X%X%X%X%X%X",
"%X%X%X%X%X%X%X%X%X%X%X%X%X%X%X%X%X%XOXoX;X_.O   X   & O             +     O O   o   m ;XoXoXOX%X%X%X%X%X%X%X%X%X%X%X%X%X%X%X%X%X",
"%X%X%X%X%X%X%X%X%X%X%X%X%X%X%X%X%X%X;XoXg g _._.!.[._.'.].].|.'.].|.'.{.|.'.].Q.U.].l.* r.;XoX%X%X%X%X%X%X%X%X%X%X%X%X%X%X%X%X%X",
"%X%X%X%X%X%X%X%X%X%X%X%X%X%X%X%X%X%XI.D.z N ;X;X;Xg.P.D.G.g.Q S.h.X.H.d.w.D.z.;X;X;XL.e Q L._.;XOX%X%X%X%X%X%X%X%X%X%X%X%X%X%X%X",
"%X%X%X%X%X%X%X%X%X%X%X%X%X%X%X%XOX;Xg o [.;XoX X;XN ; O w.h U z.i E z.e  .x.D ;XoX@X X;Xy.  e.;XoX%X%X%X%X%X%X%X%X%X%X%X%X%X%X%X",
"%X%X%X%X%X%X%X%X%X%X%X%X%X%X%X%XOX;Xg O ].;XoXoX;XK U F r.M Y [.K m h.U N i.U ;XOXoX X;Xt.  e.;XoX%X%X%X%X%X%X%X%X%X%X%X%X%X%X%X",
"%X%X%X%X%X%X%X%X%X%X%X%X%X%X%X%XOX;Xg O [.;X;XOX;Xm L.i.E x n k.w.: u.X.e w.G ;XOX;XoX;Xu.  e.;XoX%X%X%X%X%X%X%X%X%X%X%X%X%X%X%X",
"%X%X%X%X%X%X%X%X%X%X%X%X%X%X%X%XOX;Xg O T.(./.(.;Xz.].!.P.M.r.D.x.f.!.g.f.P.S.;X}.K.K.).q.  e.;XoX%X%X%X%X%X%X%X%X%X%X%X%X%X%X%X",
"%X%X%X%X%X%X%X%X%X%X%X%X%X%X%X%XOX;Xg o s.Z.C.A.%X;X;XF.k.S.;XU.l.S.l.v.S.oX;X;X(.V.V.A.I   e.;XoX%X%X%X%X%X%X%X%X%X%X%X%X%X%X%X",
"%X%X%X%X%X%X%X%X%X%X%X%X%X%X%X%X%X;Xg   S P S ~ ;X X;Xn   e ;Xr.  .     ; ].%X;XG.S P P j   e.;XoX%X%X%X%X%X%X%X%X%X%X%X%X%X%X%X",
"%X%X%X%X%X%X%X%X%X%X%X%X%X%X%X%X%X;Xh         f ;XOX;Xx.: t ;Xu.  w.d.g ; [.%X;Xj.      o   w.;XoX%X%X%X%X%X%X%X%X%X%X%X%X%X%X%X",
"%X%X%X%X%X%X%X%X%X%X%X%X%X%X%X%X%X;Xg X ..O.} +.;X%XOX;Xf e ;Xu.  I.;XG O {.%X;XR.) } ;.b   e.;XoX%X%X%X%X%X%X%X%X%X%X%X%X%X%X%X",
"%X%X%X%X%X%X%X%X%X%X%X%X%X%X%X%XOX;Xg o 8.b.2.c.%X%XOX;Xf e ;Xu.  L.;XF O {.;X;XE.#.1.m.'   e.;XoX%X%X%X%X%X%X%X%X%X%X%X%X%X%X%X",
"%X%X%X%X%X%X%X%X%X%X%X%X%X%X%X%XOX;Xg o <.0.=.6.%X%XOX;Xf e ;Xu.  I.;XG O {.;X;XE.$.&.b._   e.;XoX%X%X%X%X%X%X%X%X%X%X%X%X%X%X%X",
"%X%X%X%X%X%X%X%X%X%X%X%X%X%X%X%XOX;Xg o ,.9.=.6.OXoXoX;Xf e ;Xy.  J.;XF O [.%X;XE.#.&.n._   e.;XoX%X%X%X%X%X%X%X%X%X%X%X%X%X%X%X",
"%X%X%X%X%X%X%X%X%X%X%X%X%X%X%X%X%X;Xg o ,.c.=.6.;X;X;X;Xf e ;Xu.  e y & : [.;X;XW.#.:.n._   e.;XoX%X%X%X%X%X%X%X%X%X%X%X%X%X%X%X",
"%X%X%X%X%X%X%X%X%X%X%X%X%X%X%X%XOX;Xh O <.0.=.7.P.P.P.U.t 6 '.Q   o X X : D.I.Y.N.#.&.b._   e.;XoX%X%X%X%X%X%X%X%X%X%X%X%X%X%X%X",
"%X%X%X%X%X%X%X%X%X%X%X%X%X%X%X%XOX;Xf   8.b.3.*.O O O O O O O O O O O O O O O   k -.>.m._   w.;XoX%X%X%X%X%X%X%X%X%X%X%X%X%X%X%X",
"%X%X%X%X%X%X%X%X%X%X%X%X%X%X%X%X%X;XE M @...| ` o o O o O O o O & O O O O O O   q { } O.[ h f.;XoX%X%X%X%X%X%X%X%X%X%X%X%X%X%X%X",
"%X%X%X%X%X%X%X%X%X%X%X%X%X%X%X%X%X%X;X.X:       O O O O O O O X   o O O O O O O X   X   ! ;XoX%X%X%X%X%X%X%X%X%X%X%X%X%X%X%X%X%X",
"%X%X%X%X%X%X%X%X%X%X%X%X%X%X%X%X%X%X%X|.! U T D o O O O O O X f T > X O O O O X e T Y G g.;XoX%X%X%X%X%X%X%X%X%X%X%X%X%X%X%X%X%X",
"%X%X%X%X%X%X%X%X%X%X%X%X%X%X%X%X%X%X%X%X;X;X;XF.X o       X   ! ;Xt         X   N ;X;X;X;X%X%XOX%X%X%X%X%X%X%X%X%X%X%X%X%X%X%X%X",
"%X%X%X%X%X%X%X%X%X%X%X%X%X%X%X%X%X%X%X%XoX X;XF.  p ] ` ] H   E ;Xr O ` _ _ L   m ;X XoXOX%X%X%X%X%X%X%X%X%X%X%X%X%X%X%X%X%X%X%X",
"%X%X%X%X%X%X%X%X%X%X%X%X%X%X%X%X%X%X%X%X%XoX;XH.  c m.c.m.;.  W ;Xy * 9.b.b.8.X m ;XoX%X%X%X%X%X%X%X%X%X%X%X%X%X%X%X%X%X%X%X%X%X",
"%X%X%X%X%X%X%X%X%X%X%X%X%X%X%X%X%X%X%X%X%XoX;XF.  C ~.R.~.a.  W ;Xy * B.W.^.N.X m ;XoX%X%X%X%X%X%X%X%X%X%X%X%X%X%X%X%X%X%X%X%X%X",
"%X%X%X%X%X%X%X%X%X%X%X%X%X%X%X%X%X%X%X%X%XoX;XL.  F ;XoX;XS.  W ;Xy ; |.;X;X'.X m ;X%X%X%X%X%X%X%X%X%X%X%X%X%X%X%X%X%X%X%X%X%X%X",
"%X%X%X%X%X%X%X%X%X%X%X%X%X%X%X%X%X%X%XOX;X].D h X 6 N m N h   ! ;Xr X m M M n o : n Q ;XOX%X%X%X%X%X%X%X%X%X%X%X%X%X%X%X%X%X%X%X",
"%X%X%X%X%X%X%X%X%X%X%X%X%X%X%X%X%X%X%XOX;X'.O   & o       X   ! ;Xt           O O   N ;XoX%X%X%X%X%X%X%X%X%X%X%X%X%X%X%X%X%X%X%X",
"%X%X%X%X%X%X%X%X%X%X%X%X%X%X%X%X%X%X%XOX;X'.;   X X X X X o   E ;Xe   X X X X   X   C ;XoX%X%X%X%X%X%X%X%X%X%X%X%X%X%X%X%X%X%X%X",
"%X%X%X%X%X%X%X%X%X%X%X%X%X%X%X%X%X%X%XOX;X].g t s s s s s f e r.;XN y f s s s s f e T ;XOX%X%X%X%X%X%X%X%X%X%X%X%X%X%X%X%X%X%X%X",
"%X%X%X%X%X%X%X%X%X%X%X%X%X%X%X%X%X%X%X%X%X%XOXOXOXOXOXOXOXOXOX%X%XOXOXOXOXOXOXOXOXOXOX%X%X%X%X%X%X%X%X%X%X%X%X%X%X%X%X%X%X%X%X%X",
"%X%X%X%X%X%X%X%X%X%X%X%X%X%X%X%X%X%X%X%X%X%X%X%X%X%X%X%X%X%X%X%X%X%X%X%X%X%X%X%X%X%X%X%X%X%X%X%X%X%X%X%X%X%X%X%X%X%X%X%X%X%X%X%X",
"%X%X%X%X%X%X%X%X%X%X%X%X%X%X%X%X%X%X%X%X%X%X%X%X%X%X%X%X%X%X%X%X%X%X%X%X%X%X%X%XOX%X%X%X%X%X%X%X%X%X%X%X%X%X%X%X%X%X%X%X%X%X%X%X",
"%X%X%X%X%X%X%X%X%X%X%X%X%X%X%X%X%X%X%X%X%X%X%X%X%X%X%X%X%X%X%X%X%X%X%X%X%X%X%X%X%X%X%X%X%X%X%X%X%X%X%X%X%X%X%X%X%X%X%X%X%X%X%X%X",
"%X%X%X%X%X%X%X%X%X%X%X%X%X%X%X%X%X%X%X%X%X%X%X%X%X%X%X%X%X%X%X%X%X%X%X%X%X%X%X%X%X%X%X%X%X%X%X%X%X%X%X%X%X%X%X%X%X%X%X%X%X%X%X%X"
};