/* XPM */
static char * ballondor_xpm[] = {
/* columns rows colors chars-per-pixel */
"64 64 174 2 ",
"   c #000103",
".  c #0C0E0B",
"X  c #080A07",
"o  c #0F110D",
"O  c #14140D",
"+  c #0A0F11",
"@  c #020C15",
"#  c #0E1211",
"$  c #121511",
"%  c #161814",
"&  c #1A1A12",
"*  c #131618",
"=  c #14191A",
"-  c #191D1C",
";  c #1F211C",
":  c #3A2A0D",
">  c #21221D",
",  c #3B2D12",
"<  c #3E3314",
"1  c #161D22",
"2  c #1C2124",
"3  c #232623",
"4  c #272925",
"5  c #2B2E2C",
"6  c #282B28",
"7  c #2D302E",
"8  c #30332F",
"9  c #2D3032",
"0  c #313534",
"q  c #343835",
"w  c #3A3B37",
"e  c #3B3D39",
"r  c #4D370D",
"t  c #413316",
"y  c #483A17",
"u  c #523A10",
"i  c #533F19",
"p  c #584219",
"a  c #674C1A",
"s  c #69531A",
"d  c #79571A",
"f  c #4E4326",
"g  c #4C422D",
"h  c #554627",
"j  c #6A5429",
"k  c #3F4544",
"l  c #434643",
"z  c #454A46",
"x  c #474C49",
"c  c #494E4B",
"v  c #4B514E",
"b  c #4D5452",
"n  c #505655",
"m  c #525857",
"M  c #545C5B",
"N  c #7B6B4E",
"B  c #7C6D51",
"V  c #585F60",
"C  c #5C6465",
"Z  c #5D6768",
"A  c #5F696B",
"S  c #626566",
"D  c #616A6C",
"F  c #656E71",
"G  c #677174",
"H  c #6A7376",
"J  c #6B7679",
"K  c #6D787D",
"L  c #677478",
"P  c #757776",
"I  c #707A7E",
"U  c #7A7C79",
"Y  c #787875",
"T  c #815E1D",
"R  c #86611D",
"E  c #A46E1B",
"W  c #A5701B",
"Q  c #B77D1F",
"!  c #856621",
"~  c #8C7428",
"^  c #8B7223",
"/  c #9A7E25",
"(  c #B67C20",
")  c #A77922",
"_  c #80745C",
"`  c #8A7F66",
"'  c #7F807D",
"]  c #BA8926",
"[  c #CE891F",
"{  c #CA871E",
"}  c #D28C1E",
"|  c #DC8D1C",
" . c #DE931E",
".. c #E1951F",
"X. c #E5981F",
"o. c #EB9B1F",
"O. c #F5A11F",
"+. c #C08321",
"@. c #D68F20",
"#. c #DC9420",
"$. c #D59D23",
"%. c #C49228",
"&. c #E19720",
"*. c #E49C21",
"=. c #EC9D20",
"-. c #F19F20",
";. c #D7A625",
":. c #DAA926",
">. c #E7A124",
",. c #EAA425",
"<. c #ECA927",
"1. c #EDAD29",
"2. c #E1AB2C",
"3. c #F3A120",
"4. c #FCA621",
"5. c #F9AB24",
"6. c #EEB12A",
"7. c #F2B42B",
"8. c #F6BA2E",
"9. c #F9BD2E",
"0. c #F4B127",
"q. c #F8BF30",
"w. c #E7B932",
"e. c #FCC532",
"r. c #FECA34",
"t. c #FED636",
"y. c #FFE037",
"u. c #8A805B",
"i. c #8C866F",
"p. c #6E7C81",
"a. c #737D81",
"s. c #798387",
"d. c #848787",
"f. c #92928E",
"g. c #9A9994",
"h. c #999A95",
"j. c #A6A49D",
"k. c #A5A5A2",
"l. c #AFAEAE",
"z. c #ADABA4",
"x. c #B2AEA3",
"c. c #B1B1AE",
"v. c #BCBCBA",
"b. c #B9B8B3",
"n. c #C0C0BE",
"m. c #CBCAC6",
"M. c #CDCDCA",
"N. c #D3D2CD",
"B. c #DAD9D4",
"V. c #DCDBD8",
"C. c #D4D4D3",
"Z. c #E0DFDA",
"A. c #E2E1DC",
"S. c #E6E6E2",
"D. c #E9E8E3",
"F. c #E9E9E4",
"G. c #EDECE8",
"H. c #E8E7E2",
"J. c #F2F1EE",
"K. c #F6F6F2",
"L. c #F8F7F3",
"P. c #FBFAF7",
"I. c #FCFBF7",
"U. c #FAFAF6",
"Y. c #FBFBF8",
"T. c #FDFCF9",
"R. c #FEFEFA",
"E. c #FEFEFB",
"W. c #FFFEFA",
"Q. c #FEFEFA",
"!. c white",
"~. c #FFFFFE",
"^. c #FFFFFC",
"/. c #FEFEFA",
/* pixels */
"R.R.R.R.R.R.R.R.R.R.R.R.R.R.R.R.R.R.R.R.R.R.R.R.R.R.R.R.R.R.R.R.R.R.R.R.R.R.R.R.R.R.R.R.R.R.R.R.R.R.R.R.R.R.R.R.R.R.R.R.R.R.R.R.",
"R.R.R.R.R.R.R.R.R.R.R.R.R.R.R.R.R.R.R.R.R.R.R.R.R.R.R.R.R.R.R.R.R.R.R.R.R.R.R.R.R.R.R.R.R.R.R.R.R.R.R.R.R.R.R.R.R.R.R.R.R.R.R.R.",
"R.R.R.R.R.R.R.R.R.R.R.R.R.R.R.R.R.R.R.R.R.R.R.R.R.R.R.R.R.R.R.R.R.R.R.R.R.R.R.R.R.R.R.R.R.R.R.R.R.R.R.R.R.R.R.R.R.R.R.R.R.R.R.R.",
"R.R.R.R.R.R.R.R.R.R.R.R.R.R.R.R.R.R.R.R.R.R.R.R.R.R.R.R.R.R.R.R.R.R.R.R.R.R.R.R.R.R.R.R.R.R.R.R.R.R.R.R.R.R.R.R.R.R.R.R.R.R.R.R.",
"R.R.R.R.R.R.R.R.R.R.R.R.R.R.R.R.R.R.R.R.R.R.R.R.R.R.R.R.R.R.R.R.R.R.R.R.R.R.R.R.R.R.R.R.R.R.R.R.R.R.R.R.R.R.R.R.R.R.R.R.R.R.R.R.",
"R.R.R.R.R.R.R.R.R.R.R.R.R.R.R.R.R.R.R.R.R.R.R.R.R.P.P.P.P.P.P.P.P.P.P.P.P.P.P.R.R.R.R.R.R.R.R.R.R.R.R.R.R.R.R.R.R.R.R.R.R.R.R.R.",
"R.R.R.R.R.R.R.R.R.R.R.R.R.R.R.R.R.R.R.R.R.R.R.R.!.!.!.!.!.!.!.!.!.!.!.!.!.!.!.!.R.R.R.R.R.R.R.R.R.R.R.R.R.R.R.R.R.R.R.R.R.R.R.R.",
"R.R.R.R.R.R.R.R.R.R.R.R.R.R.R.R.R.R.R.R.R.R.I.R.A.f.g.g.g.g.g.g.g.g.g.g.g.g.f.B.!.P.R.R.R.R.R.R.R.R.R.R.R.R.R.R.R.R.R.R.R.R.R.R.",
"R.R.R.R.R.R.R.R.R.R.R.R.R.R.R.R.R.R.R.R.R.R.Y.!.v.                            l.!.Y.R.R.R.R.R.R.R.R.R.R.R.R.R.R.R.R.R.R.R.R.R.R.",
"R.R.R.R.R.R.R.R.R.R.R.R.R.R.R.R.R.R.R.R.I.!.N.d.i.^ ~ ~ ! T T T T T T T T R T ` d.N.!.I.R.R.R.R.R.R.R.R.R.R.R.R.R.R.R.R.R.R.R.R.",
"R.R.R.R.R.R.R.R.R.R.R.R.R.R.R.R.R.R.R.R.Y.!.l.  y t.t.t.0.o.o.o.o.o.3.-.o.o.4.u   k.!.Y.R.R.R.R.R.R.R.R.R.R.R.R.R.R.R.R.R.R.R.R.",
"R.R.R.R.R.R.R.R.R.R.R.R.R.R.R.R.R.R.R.!.N.P _ R ) <.<.<.1.1.1.1.6.<. .*.6.1.7.] / u.P B.!.R.R.R.R.R.R.R.R.R.R.R.R.R.R.R.R.R.R.R.",
"R.R.R.R.R.R.R.R.R.R.R.R.R.R.R.R.R.R.Y.!.l.  r 4.o. . .| 7.r.r.r.r.q. .<.r.r.r.r.y.s   n.!.Y.R.R.R.R.R.R.R.R.R.R.R.R.R.R.R.R.R.R.",
"R.R.R.R.R.R.R.R.R.R.R.R.R.R.R.R.R.!.Z.S N W ( ..&.7.7.7.q.e.e.e.e.e.8.7.*.1.e.e.e.%.E B S S.!.R.R.R.R.R.R.R.R.R.R.R.R.R.R.R.R.R.",
"R.R.R.R.R.R.R.R.R.R.R.R.R.R.R.R.I.!.M.  u 4.o...*.r.r.r.e.e.e.e.e.e.r.8. .<.r.e.r.6.4.r   B.!.R.R.R.R.R.R.R.R.R.R.R.R.R.R.R.R.R.",
"R.R.R.R.R.R.R.R.R.R.R.R.R.R.R.R.R.!.N.+ p =. ...*.e.e.e.e.e.e.e.e.e.e.8. .<.r.e.r.<.X.i # V.!.R.R.R.R.R.R.R.R.R.R.R.R.R.R.R.R.R.",
"R.R.R.R.R.R.R.R.R.R.R.R.R.R.R.R.P.!.m.# p =.....*.e.e.e.e.e.e.e.e.e.r.8. .<.e.e.e.<.o.p % N.R.I.R.R.R.R.R.R.R.R.R.R.R.R.R.R.R.R.",
"R.R.R.R.R.R.R.R.R.R.R.R.R.R.R.!.A.9 f } } ......*.e.e.e.e.e.e.e.e.e.r.8...&.*.*.*.&...2.w.h 0 F.!.R.R.R.R.R.R.R.R.R.R.R.R.R.R.R.",
"R.R.R.R.R.R.R.R.R.R.R.R.R.R.R.!.A.# , =.*.&.*.&.>.e.e.e.e.e.e.e.e.e.e.7.&.*.*.&.&.&...8.t.< * D.!.R.R.R.R.R.R.R.R.R.R.R.R.R.R.R.",
"R.R.R.R.R.R.R.R.R.R.R.R.R.R.R.!.A.= t X.>.e.e.e.8. .1.r.e.r.e.e.r.e.&.>.e.e.e.e.e.<.| 8.r.y - D.!.R.R.R.R.R.R.R.R.R.R.R.R.R.R.R.",
"R.R.R.R.R.R.R.R.R.R.R.R.R.R.R.!.A.= t X.>.r.e.r.9.*.1.9.8.8.8.8.8.8.>.1.r.e.e.e.r.7.*.6.9.t - D.!.R.R.R.R.R.R.R.R.R.R.R.R.R.R.R.",
"R.R.R.R.R.R.R.R.R.R.R.R.R.R.R.!.A.= t X.>.e.e.e.e.r.1........... .&.r.r.e.e.e.e.e.e.r.>.X.t - D.!.R.R.R.R.R.R.R.R.R.R.R.R.R.R.R.",
"R.R.R.R.R.R.R.R.R.R.R.R.R.R.R.!.A.= t X.>.e.e.e.e.e.1...>.<.>.<.>.<.7.8.e.e.e.e.e.e.e.>.*.t - D.!.R.R.R.R.R.R.R.R.R.R.R.R.R.R.R.",
"R.R.R.R.R.R.R.R.R.R.R.R.R.R.R.!.A.= t X.>.r.e.e.e.r.1.| 7.r.e.e.r.e. .>.r.e.e.e.e.e.r.>.X.t - D.!.R.R.R.R.R.R.R.R.R.R.R.R.R.R.R.",
"R.R.R.R.R.R.R.R.R.R.R.R.R.R.R.!.A.= t *.*.7.8.e.9.1.<.<.8.e.e.e.e.e...<.e.e.e.e.e.8.7.*.*.t - D.!.R.R.R.R.R.R.R.R.R.R.R.R.R.R.R.",
"R.R.R.R.R.R.R.R.R.R.R.R.R.R.R.!.A.= t *... .<.r.8.| <.r.e.e.e.e.e.e...<.r.e.e.e.r.<. ...*.< - D.!.R.R.R.R.R.R.R.R.R.R.R.R.R.R.R.",
"R.R.R.R.R.R.R.R.R.R.R.R.R.R.R.!.A.= t *...X.*.<.<...<.e.e.e.e.e.e.q...*.<.<.<.<.<.>.X.&.*.t - D.!.R.R.R.R.R.R.R.R.R.R.R.R.R.R.R.",
"R.R.R.R.R.R.R.R.R.R.R.R.R.R.R.!.A.. : ,.X.&.........<.r.e.e.e.e.e.e.&... . . .........X.,.: # D.!.R.R.R.R.R.R.R.R.R.R.R.R.R.R.R.",
"R.R.R.R.R.R.R.R.R.R.R.R.R.R.R.!.K.m.x.< d =. .......&.*.7.e.e.e.<.*...>.9.8.9.<.....=.s t x.m.L.!.R.R.R.R.R.R.R.R.R.R.R.R.R.R.R.",
"R.R.R.R.R.R.R.R.R.R.R.R.R.R.R.R.R.!.B.@ i =. .........| 7.r.e.e.&... .<.r.e.r.<... .=.y @ V.!.R.R.R.R.R.R.R.R.R.R.R.R.R.R.R.R.R.",
"R.R.R.R.R.R.R.R.R.R.R.R.R.R.R.R.R.!.N.+ p -.............*.*.*.*.&.....&.*.*.>.&.....=.y + B.!.R.R.R.R.R.R.R.R.R.R.R.R.R.R.R.R.R.",
"R.R.R.R.R.R.R.R.R.R.R.R.R.R.R.R.R.!.B.2 h #.@............. . ........... .........#.#.f 2 V.!.R.R.R.R.R.R.R.R.R.R.R.R.R.R.R.R.R.",
"R.R.R.R.R.R.R.R.R.R.R.R.R.R.R.R.R.R.P.P.b.. y =.X......................... .....3.s X z.Y.P.R.R.R.R.R.R.R.R.R.R.R.R.R.R.R.R.R.R.",
"R.R.R.R.R.R.R.R.R.R.R.R.R.R.R.R.R.R.I.!.m.2 g { [  . . . . . . . . . . . . . .[ } j 1 v.!.P.R.R.R.R.R.R.R.R.R.R.R.R.R.R.R.R.R.R.",
"R.R.R.R.R.R.R.R.R.R.R.R.R.R.R.R.R.R.R.R.P.!.m.# i 3.X.o.o.o.o.o.o.o.o.o.o.X.O.a   j.!.L.R.R.R.R.R.R.R.R.R.R.R.R.R.R.R.R.R.R.R.R.",
"R.R.R.R.R.R.R.R.R.R.R.R.R.R.R.R.R.R.R.R.I.!.N.+ t ] ( Q ( ( ( ( ( ( ( ( ( ( +.i   k.!.P.R.R.R.R.R.R.R.R.R.R.R.R.R.R.R.R.R.R.R.R.",
"R.R.R.R.R.R.R.R.R.R.R.R.R.R.R.R.R.R.R.R.R.!.M.. $ # # $ # o # o # $ $ # # # # % X k.!.Y.R.R.R.R.R.R.R.R.R.R.R.R.R.R.R.R.R.R.R.R.",
"R.R.R.R.R.R.R.R.R.R.R.R.R.R.R.R.R.R.R.R.A.b.h.0 q q 7 4 8 q q q 5 6 4 5 0 0 0 7 - ' v.S.R.R.R.R.R.R.R.R.R.R.R.R.R.R.R.R.R.R.R.R.",
"R.R.R.R.R.R.R.R.R.R.R.R.R.R.R.R.R.R.P.!.c.  3 a.a.s.C c D s.I a.n c c M p.K p.C b 3   v.!.Y.R.R.R.R.R.R.R.R.R.R.R.R.R.R.R.R.R.R.",
"R.R.R.R.R.R.R.R.R.R.R.R.R.R.R.R.R.R.S.g.U e b J G C m z C K H H D C c b C M C b c c z d.g.S.R.R.R.R.R.R.R.R.R.R.R.R.R.R.R.R.R.R.",
"R.R.R.R.R.R.R.R.R.R.R.R.R.R.R.R.R.!.M.  5 s.a.a.F l z z C I K I a.J x z x z x x l D d.5   M.!.R.R.R.R.R.R.R.R.R.R.R.R.R.R.R.R.R.",
"R.R.R.R.R.R.R.R.R.R.R.R.R.R.R.!.J.f.U k b J G C C D D C G I D C H J D V c c c M C D K z 5 Y f.J.!.R.R.R.R.R.R.R.R.R.R.R.R.R.R.R.",
"R.R.R.R.R.R.R.R.R.R.R.R.R.R.R.!.S.. - p.J L D l n a.I I I a.M l H I a.F z c z C K J K m v $ o S.!.R.R.R.R.R.R.R.R.R.R.R.R.R.R.R.",
"R.R.R.R.R.R.R.R.R.R.R.R.R.R.R.!.S.> 3 m m m m x m K J K D M C Z M M M n x c z C J C M v c 3 3 F.!.R.R.R.R.R.R.R.R.R.R.R.R.R.R.R.",
"R.R.R.R.R.R.R.R.R.R.R.R.R.R.R.!.S.> > c x x x z m K J I M l D K c z z x c c x C K M z c v & % F.!.R.R.R.R.R.R.R.R.R.R.R.R.R.R.R.",
"R.R.R.R.R.R.R.R.R.R.R.R.R.R.R.!.S.> & 3 7 c b D C b C J F D M b Z A v x x x x v b v c 7 ; k.M.K.!.R.R.R.R.R.R.R.R.R.R.R.R.R.R.R.",
"R.R.R.R.R.R.R.R.R.R.R.R.R.R.R.!.S.; $ $ 4 v b p.F z C K J a.M z G K b c v c v c c c b 3 O C.!.R.R.R.R.R.R.R.R.R.R.R.R.R.R.R.R.R.",
"R.R.R.R.R.R.R.R.R.R.R.R.R.R.R.R.P.S.c.$ - 3 3 7 5 3 6 7 5 7 4 3 5 5 3 3 3 3 3 3 3 3 3 - $ N.!.R.R.R.R.R.R.R.R.R.R.R.R.R.R.R.R.R.",
"R.R.R.R.R.R.R.R.R.R.R.R.R.R.R.R.R.!.M.O & & & & & & & & & & & & & & & & & & & & & & & & & M.R.I.R.R.R.R.R.R.R.R.R.R.R.R.R.R.R.R.",
"R.R.R.R.R.R.R.R.R.R.R.R.R.R.R.!.F.9 f :.;.;.;.;.;.;.;.;.;.;.;.;.;.;.;.;.;.;.;.;.:.$.} } } f q G.!.R.R.R.R.R.R.R.R.R.R.R.R.R.R.R.",
"R.R.R.R.R.R.R.R.R.R.R.R.R.R.R.!.H.* < :.;.;.;.;.;.;.;.;.;.;.;.;.;.;.;.;.;.;.;.;.:.$.} } @., - F.!.R.R.R.R.R.R.R.R.R.R.R.R.R.R.R.",
"R.R.R.R.R.R.R.R.R.R.R.R.R.R.R.!.S.& o O O O O O O O O O O O O O O O O O O O O O O O O O O o - F.!.R.R.R.R.R.R.R.R.R.R.R.R.R.R.R.",
"R.R.R.R.R.R.R.R.R.R.R.R.R.R.R.!.F.l w e e e e e e e e e e e e e e e e e e e e e e e e e e w l G.!.R.R.R.R.R.R.R.R.R.R.R.R.R.R.R.",
"R.R.R.R.R.R.R.R.R.R.R.R.R.R.R.R.R.R.R.R.R.R.R.R.R.R.R.R.R.R.R.R.R.R.R.R.R.R.R.R.R.R.R.R.R.R.R.R.R.R.R.R.R.R.R.R.R.R.R.R.R.R.R.R.",
"R.R.R.R.R.R.R.R.R.R.R.R.R.R.R.R.R.R.R.R.R.R.R.R.R.R.R.R.R.R.R.R.R.R.R.R.R.R.R.R.R.R.R.R.R.R.R.R.R.R.R.R.R.R.R.R.R.R.R.R.R.R.R.R.",
"R.R.R.R.R.R.R.R.R.R.R.R.R.R.R.R.R.R.R.R.R.R.R.R.R.R.R.R.R.R.R.R.R.R.R.R.R.R.R.R.R.R.R.R.R.R.R.R.R.R.R.R.R.R.R.R.R.R.R.R.R.R.R.R.",
"R.R.R.R.R.R.R.R.R.R.R.R.R.R.R.R.R.R.R.R.R.R.R.R.R.R.R.R.R.R.R.R.R.R.R.R.R.R.R.R.R.R.R.R.R.R.R.R.R.R.R.R.R.R.R.R.R.R.R.R.R.R.R.R.",
"R.R.R.R.R.R.R.R.R.R.R.R.R.R.R.R.R.R.R.R.R.R.R.R.R.R.R.R.R.R.R.R.R.R.R.R.R.R.R.R.R.R.R.R.R.R.R.R.R.R.R.R.R.R.R.R.R.R.R.R.R.R.R.R.",
"R.R.R.R.R.R.R.R.R.R.R.R.R.R.R.R.R.R.R.R.R.R.R.R.R.R.R.R.R.R.R.R.R.R.R.R.R.R.R.R.R.R.R.R.R.R.R.R.R.R.R.R.R.R.R.R.R.R.R.R.R.R.R.R.",
"R.R.R.R.R.R.R.R.R.R.R.R.R.R.R.R.R.R.R.R.R.R.R.R.R.R.R.R.R.R.R.R.R.R.R.R.R.R.R.R.R.R.R.R.R.R.R.R.R.R.R.R.R.R.R.R.R.R.R.R.R.R.R.R.",
"R.R.R.R.R.R.R.R.R.R.R.R.R.R.R.R.R.R.R.R.R.R.R.R.R.R.R.R.R.R.R.R.R.R.R.R.R.R.R.R.R.R.R.R.R.R.R.R.R.R.R.R.R.R.R.R.R.R.R.R.R.R.R.R.",
"R.R.R.R.R.R.R.R.R.R.R.R.R.R.R.R.R.R.R.R.R.R.R.R.R.R.R.R.R.R.R.R.R.R.R.R.R.R.R.R.R.R.R.R.R.R.R.R.R.R.R.R.R.R.R.R.R.R.R.R.R.R.R.R.",
"R.R.R.R.R.R.R.R.R.R.R.R.R.R.R.R.R.R.R.R.R.R.R.R.R.R.R.R.R.R.R.R.R.R.R.R.R.R.R.R.R.R.R.R.R.R.R.R.R.R.R.R.R.R.R.R.R.R.R.R.R.R.R.R.",
"R.R.R.R.R.R.R.R.R.R.R.R.R.R.R.R.R.R.R.R.R.R.R.R.R.R.R.R.R.R.R.R.R.R.R.R.R.R.R.R.R.R.R.R.R.R.R.R.R.R.R.R.R.R.R.R.R.R.R.R.R.R.R.R."
};