/* XPM */
static char * post_xpm[] = {
/* columns rows colors chars-per-pixel */
"75 75 137 2 ",
"   c None",
".  c #171811",
"X  c #1C1D16",
"o  c #1F1F18",
"O  c #1F2019",
"+  c #22231C",
"@  c #272720",
"#  c #272821",
"$  c #2B2B24",
"%  c #2E2E28",
"&  c #2F3028",
"*  c #33332D",
"=  c #363630",
"-  c #393A33",
";  c #3E3E38",
":  c #43433D",
">  c #464640",
",  c #474842",
"<  c #4B4B45",
"1  c #4E4E48",
"2  c #52534D",
"3  c #565651",
"4  c #5B5B55",
"5  c #5E5E59",
"6  c #5F605A",
"7  c #62625D",
"8  c #767672",
"9  c #777874",
"0  c #787874",
"q  c #7F7F7C",
"w  c #82827F",
"e  c #868683",
"r  c #888885",
"t  c #8C8C88",
"y  c #92928F",
"u  c #959591",
"i  c #9A9A96",
"p  c #9D9E9A",
"a  c #A1A19E",
"s  c #A5A5A2",
"d  c #A9A9A6",
"f  c #ADADAA",
"g  c #B2B2AF",
"h  c #B5B5B2",
"j  c #B8B7B4",
"k  c #B7B8B5",
"l  c #BABAB6",
"z  c #BABAB7",
"x  c #BBBAB7",
"c  c #BABBB7",
"v  c #BBBBB7",
"b  c #B9B9B6",
"n  c #BABAB8",
"m  c #BBBAB8",
"M  c #BABBB8",
"N  c #BBBBB8",
"B  c #BBBBB9",
"V  c #BCBBB8",
"C  c #BCBBB9",
"Z  c #BBBCB9",
"A  c #BCBCB8",
"S  c #BCBCB9",
"D  c #BDBDB9",
"F  c #BCBCBA",
"G  c #BDBCBA",
"H  c #BDBDBA",
"J  c #BDBDBB",
"K  c #BEBDBB",
"L  c #BDBEBB",
"P  c #BEBEBB",
"I  c #BFBEBB",
"U  c #BEBEBC",
"Y  c #BFBEBC",
"T  c #BEBFBC",
"R  c #BFBFBC",
"E  c #BFBFBD",
"W  c #BFC0BD",
"Q  c #C0C0BC",
"!  c #C0C0BD",
"~  c #C0C0BE",
"^  c #C1C0BE",
"/  c #C1C1BE",
"(  c #C1C1BF",
")  c #C1C2BF",
"_  c #C2C2BF",
"`  c #C2C1C0",
"'  c #C2C2C0",
"]  c #C3C3C0",
"[  c #C3C3C1",
"{  c #C3C4C1",
"}  c #C4C4C1",
"|  c #C4C4C2",
" . c #C5C4C2",
".. c #C4C5C2",
"X. c #C5C5C2",
"o. c #C5C5C3",
"O. c #C6C5C3",
"+. c #C5C6C3",
"@. c #C6C6C3",
"#. c #C6C6C4",
"$. c #C7C7C5",
"%. c #C7C7C6",
"&. c #C7C8C6",
"*. c #C9C9C7",
"=. c #C9CAC8",
"-. c #CACAC8",
";. c #CBCBC9",
":. c #CBCCCB",
">. c #CCCCCA",
",. c #CCCCCB",
"<. c #CDCCCB",
"1. c #CCCDCB",
"2. c #CDCDCB",
"3. c #CDCDCC",
"4. c #CDCECC",
"5. c #CECECC",
"6. c #CECECD",
"7. c #CECFCD",
"8. c #CFCFCE",
"9. c #CDCECC",
"0. c #CFD0CE",
"q. c #D0D0CE",
"w. c #D0D0CF",
"e. c #D1D0CF",
"r. c #D0D1CF",
"t. c #D1D1CF",
"y. c #D0D1CF",
"u. c #D1D1D0",
"i. c #D1D2D0",
"p. c #D1D2D1",
"a. c #D2D2D0",
"s. c #D2D2D1",
"d. c #D2D3D1",
"f. c #D3D3D1",
"g. c #D3D3D2",
"h. c #D3D4D2",
"j. c #D2D3D1",
/* pixels */
"                                                                                                                                                      ",
"                                                                                                                                                      ",
"                                                                                                                                                      ",
"                                                                                                                                                      ",
"                                                                                                                                                      ",
"                                                                                                                                                      ",
"                                                                                                                                                      ",
"                                                                                                                                                      ",
"                                                                                                                                                      ",
"                                                                                                                                                      ",
"                                                                                                                                                      ",
"                                                                                                                                                      ",
"                                                                                                                                                      ",
"                                                                                                                                                      ",
"                                                                                                                                                      ",
"                                                                                                                                                      ",
"                    + + + + + + + + + + + + + + + + + + + + + + + + + + + + + + + + + + + + + + + + + + + + + + + + + + + + + + +                     ",
"                  + + + + + + + + + + + + + + + + + + + + + + + + + + + + + + + + + + + + + + + + + + + + + + + + + + + + + + + + +                   ",
"                  + + +                                                                                                       + + +                   ",
"                  + +                                                                                                           + +                   ",
"                  + +       a.a.a.r.a.a.a.a.r.a.a.a.a.r.r.a.a.a.a.a.a.a.a.r.r.a.a.a.a.r.r.r.r.a.a.a.a.a.a.a.a.a.a.a.r.r.r.      + +                   ",
"                  + +     a.a.a.r.r.a.a.a.a.r.a.a.a.a.r.r.a.a.a.a.a.a.a.a.r.r.a.a.a.a.r.r.a.a.a.a.a.a.a.a.a.a.a.a.r.0.a.a.a.    + +                   ",
"                  + +     a.r.s e t     <.] ] =.    $./ }     <.} / *.    } / }     =.] ] *.    } ] $.    =./ { N r w s r.h.    + +                   ",
"                  + +     a.4.w : ,       S S z     z S N       N S z     z S C     z C C z     z S N     z S S p : : q 4.a.    + +                   ",
"                  + +     a.4.8 * 1 p h h / / z g h z ] S h g h R / z h h S / S h g z / / z g h S / S h g j / / a , * 8 4.a.    + +                   ",
"                  + +     a.4.0 = 2 a h j ] ] z h h S } R j h z / ] z h h S } R h h z ] ] z h h S } S h h z ] } a 1 * 8 <.a.    + +                   ",
"                  + +     a.4.0 * =       z z k     z z z       z z j     z z z       z z z     z z z       N S u * * 8 <.a.    + +                   ",
"                  + +     a.4.0 * +       h h         h h       h h       h h h       h h       h h h       h h   X * 8 <.a.    + +                   ",
"                  + +     a.4.0 * +       h h         h h       h h       h h h       h h       h h h       h j   o * 8 <.a.    + +                   ",
"                  + +     a.4.0 = , i h z R S z h h N / S j g j S / z h h S R S h h z R R z h h S / S h h j R W p : * 8 <.a.    + +                   ",
"                  + +     a.4.0 = 2 a h z ] ] z h h S } / j g k / } z h h S } / h h z ] ] z h h R } S h h j ] } s 2 * 8 <.a.    + +                   ",
"                  + +     a.4.0 * , i h z R R z h h N / S j h k S W z h h Z R S h h z R R z h h Z R S h h j R / p : * 8 <.a.    + +                   ",
"                  + +     a.4.0 * +       h h         h h       h h       h h h       h h       h h h       h z   + * 8 <.a.    + +                   ",
"                  + +     a.4.0 * +       h h         h h       h h       h h h       h h       h h h       h j   X * 8 <.a.    + +                   ",
"                  + +     a.4.0 * *       z z       j z z       z z       j z z       z z       j z z       z z y % * 8 <.a.    + +                   ",
"                  + +     r.4.0 = 2 a h j / / z h h C } R j g j / ] z h h S ] R h h z / ] z h h S ] S h g j ] ] a 1 * 8 <.a.    + +                   ",
"                  + +     r.4.0 = 2 a h j / / z h h N ] R j g j / ] z h h S ] R h h z / ] z h h S ] S h h j / ] a 1 * 8 <.a.    + +                   ",
"                  + +     a.4.0 * -       N N z     z N z       z N z     z N z     j N N z     z N z       N S u * * 8 <.a.    + +                   ",
"                  + +     a.4.0 * X       h h         h h       h h       h h h       h h       h h h       h h   . * 8 <.a.    + +                   ",
"                  + +     a.4.0 * $       j j         h h       h j       h j j       j j       h j j       k z   + * 8 <.a.    + +                   ",
"                  + +     a.4.0 * > i h h R R z g h z R S h g z S R z h h S / S h h z R R z g h S W S h h k W / p : * 8 <.a.    + +                   ",
"                  + +     a.4.0 = 3 a h j } } z g h S } R j h z / $.N h h R } / h h z } ] z h h R } R h h z } } s 2 * 8 <.a.    + +                   ",
"                  + +     a.4.0 * > i h j R R z h h z S S h h z S R z h h C R S h h z S S z h h S R S h h k R / p : * 8 <.a.    + +                   ",
"                  + +     a.4.0 * $       h h       h h h       h h       h h h       j j       h j j       j z   @ * 8 <.a.    + +                   ",
"                  + +     a.4.0 * X       h h         h h       h h       h h h       h h       h h h       h h   . * 8 <.a.    + +                   ",
"                  + +     a.<.9 * *       z z j     z z z       z z       z z z       z z       z z z       z N u * * 8 <.a.    + +                   ",
"                  + +     a.<.9 = 2 a h j / / z h h Z ] R j g z / ] z h h S ] R h h z / / z h h S { S h h z ] ] a 1 * 8 <.a.    + +                   ",
"                  + +     a.<.9 = 2 a h j / ] z h h S } R h g z / } z h h S } R h h z ] ] z g h S } S h h k ] ] a 1 * 8 :.a.    + +                   ",
"                  + +     r.<.9 * *       z z       z z z       z z       j z z       z z       z z z       z N y % * 8 :.a.    + +                   ",
"                  + +     r.<.9 * +       f f         f d       f f       d f d       f f       d f d       f f   X * 8 :.a.    + +                   ",
"                  + +     r.<.0 * o + + - 7 7 : + $ < 7 2 * X - 4 7 : @ $ 2 7 3 $ + ; 5 5 : + $ 2 7 2 $ + ; 7 6 - X * 8 <.a.    + +                   ",
"                  + +     r.<.0 * + + + @ % % $ + + $ % $ + + @ $ % # + + $ % $ + + @ $ $ @ + + $ % $ + + @ % % + + * 8 <.a.    + +                   ",
"                  + +     h.4.0 * + + + + + + + + + + + + + + + + + + + + + + + + + + + + + + + + + + + + + + + + o * 9 4.h.    + +                   ",
"                  + +     &.&.8 * o                                                                               X * 8 $.&.    + +                   ",
"                  + + X   e i 5 & +                                                                               X % 5 i e   o + +                   ",
"              + + + + + + * - & + +                                                                               + + & - * + + + + + +               ",
"              + + + + + + + O + +                                                                                   + + + + + + + + + +               ",
"                                                                                                                                                      ",
"                                                                                                                                                      ",
"                                                                                                                                                      ",
"                                                                                                                                                      ",
"                                                                                                                                                      ",
"                                                                                                                                                      ",
"                                                                                                                                                      ",
"                                                                                                                                                      ",
"                                                                                                                                                      ",
"                                                                                                                                                      ",
"                                                                                                                                                      ",
"                                                                                                                                                      ",
"                                                                                                                                                      ",
"                                                                                                                                                      ",
"                                                                                                                                                      ",
"                                                                                                                                                      ",
"                                                                                                                                                      ",
"                                                                                                                                                      "
};