/* XPM */
static char * front_xpm[] = {
/* columns rows colors chars-per-pixel */
"64 64 165 2 ",
"   c None",
".  c #060807",
"X  c #0C0C0B",
"o  c #180F07",
"O  c #100F0C",
"+  c #160D06",
"@  c #0F100F",
"#  c #1A1007",
"$  c #13110E",
"%  c #1C1209",
"&  c #0F1110",
"*  c #111313",
"=  c #191611",
"-  c #1E1A13",
";  c #15191A",
":  c #1C1D1B",
">  c #22170B",
",  c #251A0E",
"<  c #2C1E0E",
"1  c #221D15",
"2  c #2B1E10",
"3  c #2F200F",
"4  c #31210F",
"5  c #2F2112",
"6  c #26221A",
"7  c #2C251C",
"8  c #332210",
"9  c #382714",
"0  c #3D2B19",
"q  c #3B2A17",
"w  c #1A2124",
"e  c #1F272A",
"r  c #342D21",
"t  c #222B30",
"y  c #2A383F",
"u  c #422F1A",
"i  c #44321D",
"p  c #48341E",
"a  c #413627",
"s  c #423728",
"d  c #443828",
"f  c #4B3A27",
"g  c #523D25",
"h  c #4D402E",
"j  c #564027",
"k  c #5B442A",
"l  c #5E4C36",
"z  c #524737",
"x  c #64492D",
"c  c #6C4D2F",
"v  c #644526",
"b  c #604E37",
"n  c #624F38",
"m  c #6B4C30",
"M  c #6B5439",
"N  c #735334",
"B  c #795531",
"V  c #70573A",
"C  c #74593B",
"Z  c #7C5D3C",
"A  c #7A5836",
"S  c #2F3E46",
"D  c #31424A",
"F  c #384B55",
"G  c #374A54",
"H  c #3C515C",
"J  c #3E5460",
"K  c #725C41",
"L  c #7E6344",
"P  c #425C69",
"I  c #4B6879",
"U  c #846543",
"Y  c #876947",
"T  c #896A46",
"R  c #8D6E4B",
"E  c #906F4A",
"W  c #9B6C41",
"Q  c #99774F",
"!  c #96744E",
"~  c #987752",
"^  c #9D7A52",
"/  c #917350",
"(  c #AD7949",
")  c #B67E4C",
"_  c #A37F55",
"`  c #8D7B61",
"'  c #A58057",
"]  c #A58259",
"[  c #A9845A",
"{  c #AB855A",
"}  c #B28B5E",
"|  c #AF8B61",
" . c #B08C61",
".. c #BD9363",
"X. c #BAA07E",
"o. c #D19157",
"O. c #DA975B",
"+. c #E49C5D",
"@. c #E89F5E",
"#. c #C09564",
"$. c #C09769",
"%. c #C69A6A",
"&. c #CA9D6C",
"*. c #E69E60",
"=. c #CEA16E",
"-. c #D1A26F",
";. c #D1A371",
":. c #D7A874",
">. c #DAAA75",
",. c #DFAD78",
"<. c #E8A061",
"1. c #E7A96D",
"2. c #EAAB6F",
"3. c #E1AE79",
"4. c #E7B47C",
"5. c #E2B17A",
"6. c #EEB479",
"7. c #EAB57D",
"8. c #ECB77E",
"9. c #EBB67D",
"0. c #EEB97F",
"q. c #EEB97F",
"w. c #F0B97F",
"e. c #F0B97F",
"r. c #F0B67B",
"t. c #E5CE5D",
"y. c #F1D152",
"u. c #DBCC6C",
"i. c #DECD66",
"p. c #D4CA71",
"a. c #537385",
"s. c #56788B",
"d. c #5F869C",
"f. c #60869D",
"g. c #6088A0",
"h. c #6C97B3",
"j. c #6D98B3",
"k. c #749EB6",
"l. c #72A1BF",
"z. c #78A3BD",
"x. c #78AACB",
"c. c #7EB3D7",
"v. c #7FB5D8",
"b. c #C1A683",
"n. c #DBBB93",
"m. c #EEB980",
"M. c #F0B980",
"N. c #F0BA80",
"B. c #F1BA80",
"V. c #F1BA81",
"C. c #F2BB81",
"Z. c #F3BB81",
"A. c #F2BB82",
"S. c #F3BC81",
"D. c #F2BC81",
"F. c #F3BC82",
"G. c #F5BD82",
"H. c #F5BD82",
"J. c #F2BC81",
"K. c #86B5CD",
"L. c #89B7CC",
"P. c #82B5D6",
"I. c #87B9D7",
"U. c #81B6D9",
"Y. c #82B9DE",
/* pixels */
"                                                                                                                                ",
"                                                                                                                                ",
"                                                                                                                                ",
"                                                                                                                                ",
"                                                                                                                                ",
"                                                  4 8 8 8 8 8 8 8 8 4 8                                                         ",
"                                                  8 8 8 8 8 8 8 8 8 8 8 3                                                       ",
"                                              8 8 8 8 8 8 8 8 8 8 8 8 8 8 4 <                                                   ",
"                                              , < 8 8 8 8 8 8 8 8 8 8 4 8 8 <                                                   ",
"                                              % % < 8 8 4 8 8 8 8 8 4 4 8 4 4 3 <                                               ",
"                                            # % % > > > > 4 4 4 4 4 4 4 4 4 < > % #                                             ",
"                                          # % % % > > > , 9 9 9 9 9 9 9 9 9 < % % # #                                           ",
"                                          # % # 5 ] ..........#.#.#.#...#.#.C # % % #                                           ",
"                                          # % > i >.G.S.S.S.S.S.S.S.S.S.M.G.~ , > % #                                           ",
"                                          o > ] =.9.M.M.M.M.M.w.w.w.M.M.M.M.,.%.V # #                                           ",
"                                          o 2 %.G.M.M.w.w.M.M.w.w.w.M.M.M.w.M.G.Y # #                                           ",
"                                          + > %.M.M.M.M.S.M.M.M.M.M.M.S.M.M.w.M.Y o #                                           ",
"                                          0 f &.M.M.9.%.&.8.M.M.M.M.3.$.;.M.w.M.Y % %                                           ",
"                                      X = ( O.6.M.M.;.7 s 5.M.M.M.G.{ = M M.w.M.R < > X                                         ",
"                                      X = ) *.6.M.M.;.1 r 5.M.M.M.G.] X n M.w.M.' v 0 X                                         ",
"                                      X = ) *.6.M.M.;.- r 3.M.w.w.G.] X b M.w.M.1.+.A X                                         ",
"                                      X = ) *.6.M.M.,.L R 9.M.M.w.M.&.K ' M.w.M.2.+.A X                                         ",
"                                      X = ) <.r.S.M.M.M.M.M.M.M.M.M.M.M.M.M.M.S.2.+.A X                                         ",
"                                          x N U Q 5.M.M.,.E T T T T { q.M.M.%.T Z N g                                           ",
"                                          X X , p :.M.M.&.q < < < < M q.M.S._ 4 % X X                                           ",
"                                              < p >.3.U L ' [ [ [ [ ! C _ G._ 8 <                                               ",
"                                              < i ;.=.0 g 4.M.9.8.G.} < C 9.^ 8 <                                               ",
"                                              $ - g j 8 j 4.-.x Z 8.} 8 u k i $ $                                               ",
"                                              X O > < 3 g =.} 9 g ;._ 9 4 < > X                                                 ",
"                                                  $ $ 2 9 i i 8 9 i u 8 > $ O                                                   ",
"                                                  X O > < 4 4 4 4 4 < < % X X                                                   ",
"                                          X X X X X X X $ < 3 < 3 3 > X X X X X X X X                                           ",
"                                          X X X ; H F * - c B B B B g X e J D X X X X                                           ",
"                                      X X         U.l.w 7 o.+.+.+.@.W X G P.U.      X X                                         ",
"                                    X             U.x.  1 x m c c c k   I P.P.          X X                                     ",
"                                  X X             c.c.    X X & X X X     K.L.          X X                                     ",
"                                  X X             c.c.      a.f.d.      t.p.i.          X X                                     ",
"                                  X X             U.c.      U.U.U.                      * X                                     ",
"                                  X & d.Y.U.U.    v.c.      P.c.c.      y.y.y.    U.U.U.G X                                     ",
"                                  X * a.j.h.j.    v.c.      P.c.c.      y.y.y.    j.h.j.D X                                     ",
"                                  X X * ; ; ;     c.c.      P.c.c.        u.u.    ; ; ; & X                                     ",
"                                  X X r a - $     c.c.      P.c.c.        K.K.    $ 7 d 1 X                                     ",
"                                  X $ { 5.k <     c.c.      c.c.c.        c.c.    < T 9.l X                                     ",
"                                  X $  .9.k <     c.c.      c.c.c.        c.c.    < R S.b X                                     ",
"                                  X $  .9.k <     c.c.      c.c.c.        c.c.    < R S.b X                                     ",
"                                  X $ | M.} ^     c.c.      c.c.c.        c.c.    ^ %.M.b X                                     ",
"                                  X $ | G.S.S.    P.U.      U.c.c.        c.P.    S.M.q.l X                                     ",
"                                  X $ | G.M.5.d * F F ; X X S H H e X X t H S . / M.w.q.l X                                     ",
"                                  X $ } m.8.>.r X X X X X X X X X X X X X X X X K q.9.9.l X                                     ",
"                                      d h h d = X X X X X X X X X X X X X X X X 7 h h h r                                       ",
"                                      X X X X X X X X X X X X X X X X X X X X X X X X X                                         ",
"                                              X X X X X X X X     X X X X X X X X                                               ",
"                                              X $ 6 7 7 6 X X     X = 7 7 7 1 X X                                               ",
"                                              X 6 $.>.>...- X     X z :.>.,.R X X                                               ",
"                                              X 6 b.n.n.X.: X     X z n.n.n.` X X                                               ",
"                                              X w z.I.I.k.: X     X G P.I.I.s.X X                                               ",
"                                              X ; s.g.g.a.; X     X y d.d.g.P X X                                               ",
"                                          X X X X & * * & X X     X X * * * @ X X X X                                           ",
"                                          X X X X X X X X X X     X X X X X X X X X X                                           ",
"                                          X X X X X X X X X X     X X X X X X X X X X                                           ",
"                                                                                                                                ",
"                                                                                                                                ",
"                                                                                                                                ",
"                                                                                                                                "
};