/* XPM */
static char * left_xpm[] = {
/* columns rows colors chars-per-pixel */
"64 64 128 2 ",
"   c None",
".  c #14140F",
"X  c #1B170F",
"o  c #1D180F",
"O  c #161611",
"+  c #191711",
"@  c #171813",
"#  c #1A1912",
"$  c #1B1D1A",
"%  c #261B0D",
"&  c #2A1D0E",
"*  c #211E16",
"=  c #2D200F",
"-  c #2F2212",
";  c #27231A",
":  c #2D2519",
">  c #2E291C",
",  c #352613",
"<  c #372814",
"1  c #362C1C",
"2  c #3C2E1B",
"3  c #1F2321",
"4  c #212524",
"5  c #3C3323",
"6  c #293132",
"7  c #2C3639",
"8  c #4A361E",
"9  c #423827",
"0  c #4D3A21",
"q  c #4A3E29",
"w  c #563C20",
"e  c #4F422D",
"r  c #574024",
"t  c #5A4327",
"y  c #554028",
"u  c #5B4529",
"i  c #5D4C33",
"p  c #644A2D",
"a  c #694A29",
"s  c #645136",
"d  c #6E5131",
"f  c #6C5638",
"g  c #715232",
"h  c #7B5935",
"j  c #38464D",
"k  c #3A4850",
"l  c #3F5059",
"z  c #40525C",
"x  c #455863",
"c  c #4B606D",
"v  c #4F6775",
"b  c #536C7C",
"n  c #676966",
"m  c #835D36",
"M  c #8D6137",
"N  c #8C6138",
"B  c #94683C",
"V  c #8B6B42",
"C  c #8C6E48",
"Z  c #9F6F41",
"A  c #9D7B50",
"S  c #A47241",
"D  c #AD7844",
"F  c #A27C4D",
"G  c #AD7B48",
"H  c #B47E4A",
"J  c #B97F49",
"K  c #AC814F",
"L  c #B5804B",
"P  c #BF834A",
"I  c #AC8452",
"U  c #B08654",
"Y  c #B88855",
"T  c #BC915D",
"R  c #BD9461",
"E  c #CB8C52",
"W  c #CE965C",
"Q  c #D49355",
"!  c #DE9757",
"~  c #E09756",
"^  c #E49856",
"/  c #E29959",
"(  c #E7A15F",
")  c #E9A15E",
"_  c #C59963",
"`  c #CD9F66",
"'  c #D29A68",
"]  c #DDA265",
"[  c #D4A369",
"{  c #DAA669",
"}  c #DDAA6D",
"|  c #E6A463",
" . c #E8A767",
".. c #E3AC6E",
"X. c #EAAC6B",
"o. c #ECB06E",
"O. c #E7B070",
"+. c #EEB574",
"@. c #F0B775",
"#. c #F3B876",
"$. c #F2B978",
"%. c #6788A0",
"&. c #6C8DA5",
"*. c #759AB5",
"=. c #878680",
"-. c #B9A58F",
";. c #B2A698",
":. c #A7AAA9",
">. c #C2A080",
",. c #81ABCB",
"<. c #81ABCC",
"1. c #81ACCC",
"2. c #83AFD1",
"3. c #86B3D6",
"4. c #86B3D7",
"5. c #86B4D7",
"6. c #87B4D7",
"7. c #86B3D5",
"8. c #84B4D9",
"9. c #85B4D9",
"0. c #87B4D8",
"q. c #87B5D8",
"w. c #87B5D9",
"e. c #87B4D8",
"r. c #88B5D8",
"t. c #88B7DA",
"y. c #88B6DA",
"u. c #8AB8DC",
/* pixels */
"                                                                                                                                ",
"                                                                                                                                ",
"                                                                                                                                ",
"                                                                                                                                ",
"                                                                                                                                ",
"                                                , , , , , , , , , , , , , , ,                                                   ",
"                                                , < < < < < < , , , , , , , , ,                                                 ",
"                                            , , , < < < , , , , , , , , , , , , ,                                               ",
"                                            , , , < < , , , , , , , , , , , , , , &                                             ",
"                                            , , , , , , , , , , , , , , , , , , , = &                                           ",
"                                        + + % & & = , , , , , , , , , , , , , , , & %                                           ",
"                                        + + % , , , , , , , , , , , , , , , , , , & %                                           ",
"                                            1 D P m & & & & & = , , , , , , , , , & %                                           ",
"                                            2 Q ) G 0 2 % % % & , , , , , , , , , & %                                           ",
"                                            5 { @.o...F & % % % % % % & , , , & % % %                                           ",
"                                            5 { @.+.#.I & & % < 8 2 % & , , , & % % %                                           ",
"                                            5 } @.+.#.I & & % d ..F & & & & & & % % %                                           ",
"                                            i } @.+.#.I & < 0 V #.U & % % % % % % % %                                           ",
"                                        . > ` @.@.+.#.I % p } O.#.I & % % % % % % % %                                           ",
"                                        q s } @.@.+.#.T u V +.+.#.I & % % % % % % % %                                           ",
"                                    O ; _ +.+.@.@.+.+.+.O.O.+.+.#.I & % % % % & & X +                                           ",
"                                      ; A T ..o.+.+.+.+.+.+.+.+.o.K & % & % & % % X O                                           ",
"                                        # 1 E ( +.+.+.+.+.+.+.X./ S & % & & & X O                                               ",
"                                        O : B L O.+.+.+.+.+.X.| / J a 8 & % % X O                                               ",
"                                          + , t ..@.+.+.@.X./ ~ ~ ! / M & % O                                                   ",
"                                          + - r ] X.X.X.X.| / ~ ~ ! / N % # O                                                   ",
"                                          + - w Q / / / / / ~ ! ! ~ ^ m .                                                       ",
"                                            * 1 h m m m m Z ! ~ ~ ' -.=.c j                                                     ",
"                                            @ @ O O O O O y ! ~ ~ >.5.9.u.v O                                                   ",
"                                                  O O O   n :.;.      5.t.%.  O O                                               ",
"                                                    O @     9.9.        9.    O O                                               ",
"                                                    O @     5.5.              O O                                               ",
"                                                    O @     5.5.              @ O                                               ",
"                                                    O @     5.5.    9.9.9.9.t.l .                                               ",
"                                                    O @     5.5.    ,.<.,.,.1.x .                                               ",
"                                                    O @     5.4.    7 7 7 7 7 4 O                                               ",
"                                                    O @     5.4.    > > > : : * O                                               ",
"                                                    O @     5.5.    [ [ [ W E p O                                               ",
"                                                    O @     5.5.    @.@.#. ./ g O                                               ",
"                                                    O @     9.5.    +.+.@. ./ d O                                               ",
"                                                    O @     9.5.    +.+.@. ./ d O                                               ",
"                                                    O @     t.t.    +.+.@. ./ d O                                               ",
"                                                    O O     *.&.    +.+.+. ./ d O                                               ",
"                                                    O O O $ 3 $ O s @.#.$.X./ g O                                               ",
"                                                    O O O O O O O e R R R Y H p O                                               ",
"                                                    O O O O O O O # * * * * *                                                   ",
"                                                    O O O O O O O O O O O O O                                                   ",
"                                                    O O O O O O O O O O O .                                                     ",
"                                                    O O O > i i i i i 5 O                                                       ",
"                                                        O i O.+.+.+.@.C O                                                       ",
"                                                        O 9 ..+.+.+.#.f O                                                       ",
"                                                        @ #             O                                                       ",
"                                                        O 7 2.        z O                                                       ",
"                                                        . k 2.7.7.7.4.b O                                                       ",
"                                                    O O O 4 j j j j j 6 O                                                       ",
"                                                    O @ O O . . . . . O O                                                       ",
"                                                    O @ O O O O O O O O O                                                       ",
"                                                    O @ O O O O O O O O O                                                       ",
"                                                                                                                                ",
"                                                                                                                                ",
"                                                                                                                                ",
"                                                                                                                                ",
"                                                                                                                                ",
"                                                                                                                                "
};