/* XPM */
static char * right_xpm[] = {
/* columns rows colors chars-per-pixel */
"64 64 196 2 ",
"   c #000201",
".  c #0A0200",
"X  c #040805",
"o  c #0C0C05",
"O  c #020909",
"+  c #0C0E0A",
"@  c #1A0F00",
"#  c #100C07",
"$  c #0E120D",
"%  c #1B1205",
"&  c #12140E",
"*  c #1D160A",
"=  c #0F1718",
"-  c #121511",
";  c #161813",
":  c #1A1B14",
">  c #1B1E1A",
",  c #131D1F",
"<  c #030A11",
"1  c #221304",
"2  c #281705",
"3  c #251B0C",
"4  c #2A1D0E",
"5  c #221709",
"6  c #311F0D",
"7  c #1E211D",
"8  c #32210F",
"9  c #2D2213",
"0  c #2E271A",
"q  c #262218",
"w  c #342312",
"e  c #372916",
"r  c #392917",
"t  c #372B1B",
"y  c #141E21",
"u  c #2A2E2A",
"i  c #212420",
"p  c #2D302D",
"a  c #3F3121",
"s  c #31332F",
"d  c #232D30",
"f  c #26353B",
"g  c #253237",
"h  c #353734",
"j  c #47321A",
"k  c #573A1D",
"l  c #453524",
"z  c #4A3B27",
"x  c #523E26",
"c  c #544229",
"v  c #5B462C",
"b  c #5C4D37",
"n  c #63472B",
"m  c #67492B",
"M  c #66543C",
"N  c #775C3B",
"B  c #395E7E",
"V  c #444845",
"C  c #504841",
"Z  c #4E504D",
"A  c #5B544A",
"S  c #53534E",
"D  c #575955",
"F  c #595A57",
"G  c #745E42",
"H  c #5C605F",
"J  c #796245",
"K  c #61625E",
"L  c #746A5C",
"P  c #636564",
"I  c #696A66",
"U  c #6A6C69",
"Y  c #676966",
"T  c #71726E",
"R  c #777875",
"E  c #875C34",
"W  c #AD6F3B",
"Q  c #846745",
"!  c #9E6D42",
"~  c #937550",
"^  c #BB7942",
"/  c #A07E55",
"(  c #C47F46",
")  c #AB855A",
"_  c #CB844A",
"`  c #DB8E4F",
"'  c #DF9050",
"]  c #C78E58",
"[  c #EC934C",
"{  c #E1914E",
"}  c #E29251",
"|  c #EC9752",
" . c #ED9955",
".. c #EF9E5A",
"X. c #F19B55",
"o. c #FB9E54",
"O. c #F49F58",
"+. c #FA9A4C",
"@. c #FFA65B",
"#. c #FFA85B",
"$. c #C59662",
"%. c #D8A46D",
"&. c #EFA867",
"*. c #EDA969",
"=. c #ECA666",
"-. c #F4AD6C",
";. c #FAAA63",
":. c #F6B06F",
">. c #FDB26E",
",. c #E5AC72",
"<. c #EBB276",
"1. c #EBB679",
"2. c #EBB579",
"3. c #F3B576",
"4. c #F6B97A",
"5. c #F9BB7C",
"6. c #F1B779",
"7. c #FDC27C",
"8. c #3D6281",
"9. c #4F7CA0",
"0. c #5283AC",
"q. c #7190A9",
"w. c #5995CB",
"e. c #4793D9",
"r. c #5F9CD0",
"t. c #619ACA",
"y. c #639ED0",
"u. c #5DA2DD",
"i. c #65A2D5",
"p. c #67A3D7",
"a. c #76A7D2",
"s. c #7DB1DD",
"d. c #67A9E3",
"f. c #848482",
"g. c #898B89",
"h. c #97938D",
"j. c #97999A",
"k. c #A29E98",
"l. c #BDAD9C",
"z. c #8291A3",
"x. c #8CA2B6",
"c. c #A2A5A5",
"v. c #A7A8A8",
"b. c #B5B1AD",
"n. c #B7B8B6",
"m. c #BABBB9",
"M. c #B8B8B5",
"N. c #F7BE84",
"B. c #F9BF83",
"V. c #C0BDB9",
"C. c #FEC382",
"Z. c #FFCA85",
"A. c #F7C187",
"S. c #FFD990",
"D. c #C3C0BB",
"F. c #DFCBB6",
"G. c #8DAFCC",
"H. c #86B5DC",
"J. c #88B4D9",
"K. c #97BDDD",
"L. c #86B8E3",
"P. c #9DC5E7",
"I. c #C8C8C6",
"U. c #D1CFCB",
"Y. c #D3D2CF",
"T. c #D9D9D7",
"R. c #D7D7D6",
"E. c #F4DEC6",
"W. c #EEDBCC",
"Q. c #F8E2CE",
"!. c #E4E1DE",
"~. c #FFEAD1",
"^. c #D1DEEA",
"/. c #C7D9E9",
"(. c #D7E5F1",
"). c #E6E5E3",
"_. c #E8E7E5",
"`. c #E9E8E7",
"'. c #EDECEB",
"]. c #F2F1EF",
"[. c #EEF2F5",
"{. c #EFF4F8",
"}. c #F3F5F5",
"|. c #F8F7F5",
" X c #FBF9F6",
".X c #F1F6FA",
"XX c #FBFAF9",
"oX c #FCFBFA",
"OX c #FDFCFA",
"+X c #FDFCFB",
"@X c #FEFDFB",
"#X c #FEFDFC",
"$X c white",
"%X c #FFFEFE",
"&X c #FEFEFC",
"*X c #FEFDFC",
/* pixels */
"&X&X&X&X&X&X&X&X&X&X&X&X&X&X&X&X&X&X&X&X&X&X&X&X&X&X&X&X&X&X&X&X&X&X&X&X&X&X&X&X&X&X&X&X&X&X&X&X&X&X&X&X&X&X&X&X&X&X&X&X&X&X&X&X",
"&X&X&X&X@X@X&X&X&X&X&X&X&X&X&X&X&X&X&X&X&X&X@X&X&X@X&X@X&X&X&X&X&X&X&X&X&X@X@X&X@X&X&X@X&X&X&X&X&X&X&X&X&X&X&X&X&X&X&X&X&X&X&X&X",
"&X&X&X&X@X&X&X&X&X&X&X&X&X&X&X&X&X&X&X&X&X@X@X@X@X@X@X@X@X@X@X@X@X@X@X@X@X@X@X@X&X@X@X@X&X&X@X&X&X&X&X&X&X&X@X&X&X&X&X&X&X&X@X&X",
"&X&X&X&X&X&X&X&X&X&X&X&X&X&X&X&X&X&X&X&X&X@X@X&X&X&X&X&X&X&X&X&X&X&X&X&X&X&X&X&X@X&X&X&X&X&X&X&X&X&X&X&X&X&X&X@X&X&X&X&X&X&X&X&X",
"&X&X&X&X&X&X&X&X&X&X&X&X&X&X@X&X&X&X&X@X@X@XoX|.).!.!.!.!.!.!.!.!.!.!.!.!.!.!.'.@X@X&X&X&X&X&X&X&X&X&X&X@X&X@X&X@X&X&X&X&X&X&X&X",
"&X@X&X&X&X&X@X&X&X&X&X&X&X&X&X&X&X&X@X@X@X@X&X'.l w r e e r r r e e e e r t 2 h.&XXX@X&X&X&X&X&X&X&X&X&X&X&X&X@X&X&X&X&X&X&X&X&X",
"&X&X&X&X&X&X&X&X&X&X&X&X&X&X&X&X&X@X@X@XoX|.D.v.t 6 w w w w w w 8 w w w w w 2 L m.).&X@X&X&X&X&X@X&X&X&X&X&X&X&X&X&X&X@X&X&X&X&X",
"&X@X&X&X&X&X&X&X&X&X&X&X&X&X&X&X&X@X&X@X&XXXa 1 w w w w w w w w w w w w w w w 4 . b.&XXX@X&X&X&X&X&X&X&X&X&X&X@X&X&X&X&X&X&X&X&X",
"&X@X&X&X&X&X&X&X&X&X&X@X&X&X&X&X&X&X@X&XV.k.l w w w w w w w w w w w w w w w w w % b.&X|.&X&X&X@X&X&X&X&X&X&X&X&X&X&X&X&X&X&X&X&X",
"&X&X&X&X&X&X&X&X&X&X&X&X&X&X&X&X&X&XoX&XC . w w w w w w w w w w w w w w w w w w @ M.&XXX@X&X&X&X&X&X&X&X&X&X&X&X&X&X&X&X&X&X&X&X",
"&X&X&X&X&X&X&X&X&X&X&X&X&X&X&X&X&X&X@X&XA % w w w w w w w w w w 4 4 4 4 4 4 4 4 5 S P I.&XoX&X&X&X&X&X&X&X&X&X&X&X&X&X&X&X&X&X&X",
"&X&X&X&X&X&X&X&X&X&X&X&X&X&X&X&X&X&X@X&XA @ w w w w w w w w w w 3 3 3 3 * * * * 3 #   c.&XXX&X&X&X&X&X&X&X&X&X&X&X&X&X&X&X&X&X&X",
"&X&X&X&X&X&X&X&X&X&X&X&X&X&X&X&X&X&X@X&XA @ w w w w w w 4 4 4 4 3 3 * j ( ^ ^ _ j g.Y.`.&X@X&X&X&X&X&X&X&X&X&X&X&X&X&X&X&X&X&X&X",
"&X&X&X&X&X&X&X&X&X&X&X&X&X&X&X&X&X&XoX&XA @ w w w w w w 3 3 3 3 3 4 3 n @.O.O.;.k v.&XXX&X&X&X&X&X&X&X&X&X&X&X&X&X&X&X&X&X&X&X&X",
"&X&X&X&X&X&X&X&X&X&X&X&X&X&X&X&X&X&XoX&XA @ 4 4 4 4 4 3 3 3 3 4 % c <.,.3.3.3.C.c c.&X|.&X&X&X@X&X&X&X&X@X&X&X&X&X&X&X@X&X&X&X&X",
"&X&X&X&X&X&X&X&X&X&X&X&X&X&X&X&X&X&XoX&XA @ 4 3 3 3 3 3 9 9 4 4 % v C.5.5.5.5.Z.v c.&X|.&X&X&X@X&X&X&X&X&X&X&X&X&X&X&X&X&X&X&X&X",
"&X&X&X&X&X&X&X&X&X&X&X&X&X&X&X&X&X&X@X&XA @ 4 3 3 3 5 e %.%.4 * % v C.4.5.5.4.Z.c c.&XXX@X&X&X&X&X&X&X&X&X&X&X&X&X&X&X&X&X&X&X&X",
"&X@X&X@X&X&X&X&X&X&X&X&X&X&X&X&X&X&XoX&XA @ 4 3 3 3 5 r 5.6.x j * v C.4.5.5.4.C.N j.).'.@X@X&X&X&X&X&X&X&X&X&X&X&X&X&X&X&X&X&X&X",
"&X&X&X&X&X&X&X&X&X&X&X&X&X&X&X@X&X&XoX&XA @ 4 3 3 3 5 r <.5.5.,.% x C.4.5.5.5.4.C.M   v.&XXX@X@X@X@X&X&X&X&X&X&X&X&X&X&X&X&X@X&X",
"&X&X&X&X&X&X&X&X&X&X&X&X&X&X&X&X&X@XoX&XA % 4 3 3 3 5 r <.5.5.,.z N C.4.5.5.5.4.C.Q 0 h.Y.|.&X@X&X&X&X&X&X&X&X&X&X&X&X&X&X&X&X&X",
"&X&X&X@X&X&X@X&X&X&X&X&X&X&X&X&X&X@XoX&XV   3 4 3 3 5 t 1.5.5.5.5.5.5.5.5.5.5.5.5.C.S.c   _.&X@X&X&X&X&X&X&X&X&X&X&X&X&X&X&X@X&X",
"&X&X&X&X&X&X&X&X&X&X&X&X&X&X&X&X&X@X@X&Xf.S 0 3 3 3 5 r *.:.-.-.4.4.5.5.5.5.5.3.-.$.) L H '.&X@X&X&X&X&X&X@X&X&X&X&X&X&X&X&X&X&X",
"&X&X&X&X&X&X&X&X&X&X&X&X&X&X&X&X@X&X&X@X&X&Xu   3 4 5 w { X.[  .5.5.5.5.5.5.5.;.@.n   v.&XXX&X&X&X&X&X&X&X&X&X&X&X&X&X&X&X&X&X&X",
"&X&X&X@X@X&X&X&X&X&X&X&X&X@X&X&X&X&X@X@XoXXXf.F q 3 5 w } X.|  .-.:.5.5.5.4.5.] W l V U.&XoX&X@X&X&X&X&X&X&X&X&X&X&X@X&X&X&X&X&X",
"&X@X&X&X&X&X&X&X&X&X&X&X&X@X&X&X&X&X&X&X&X@X&X'.-   3 w { X.|  .[ ..5.5.5.4.Z.Q . o I.&XoX&X&X&X@X&X&X&X&X&X&X&X&X&X&X&X&X&X&X&X",
"&X&X&X&X&X&X&X&X&X&X&X&X&X&X&X&X&X&X&X&X&X@X@X].R I : 9 '  .| | | ..&.&.&.=.>.E * & I.&XoX&X&X&X&X&X&X&X&X@X@X&X&X&X&X&X&X&X&X&X",
"&X&X&X&X&X&X&X&X&X&X&X&X&X&X&X@X&X&X&X@X@X@X@X@X&X`.& % [ +.| | | X.o.o.o.o.#.E * . I.&XXX&X@X@X&X&X&X&X@X@X&X&X&X&X&X&X&X&X&X&X",
"&X&X&X@X@X&X&X&X&X&X&X&X@X&X&X&X&X@X@X&X@X@X&X].T P B 8.z.j. . .X._ n m n n m a o I '.&X@X&X@X@X&X&X&X@X@X@X@X&X&X@X&X&X&X&X&X&X",
"&X&X&X&X&X&X&X&X&X&X&X&X&X&X&X&X&X&X@X&X&X@X&X'.+ < e.e.e.w.} [ o.W     O O   X   v.&XXX@X&X&X&X&X&X&X&X&X&X@X&X&X&X&X&X&X&X&X&X",
"&X@X&X@X&X&X&X@X&X&X&X@X&X&X&X&X&X&X&X@X&XXXK Z m.I.^./.i.a.Q.W.x.x.U.h.  D U.D.m.`.&X@X&X&X&X@X&X&X&X&X&X&X@X&X&X&X&X&X&X&X&X&X",
"&X&X&X@X&X&X&X&X&X&X@X&X&X&X&X&X&X&X@X@X&X|.7 $ '.&X&X.Xi.p.XX.Xu.L.&Xm.  U &XXX&X&X@X&X&X&X@X@X@X@X&X&X&X&X&X&X&X&X&X&X&X&X&X&X",
"&X&X&X@X&X&X&X&X&X&X&X&X&X&X@X&X&X&X@X@X&X|.u > '.&X@XXX(.(.@X[.i.J.&Xn.  U &X|.XX@X@X@X@X&X@X@X@X@X@X@X@X&X&X@X&X&X&X&X&X&X&X&X",
"&X&X&X&X&X@X@X&X&X&X&X&X&X&X@X&X@X&X@X@X&X|.u : '.&XoX@X&X&X&X[.i.H.&Xm.  U &XXX@X@X@X@X&X&X@X@X&X&X&X@X@X@X&X@X&X&X&X@X&X&X@X&X",
"&X&X&X@X@X@X&X@X@X@X@X&X&X@X&X@X@X@X@X@X&X|.u - a.L.H.H.s.H.XX.Xi.H.&Xm.  U &XXX@X@X@X@X@X@X@X@X&X&X&X&X@X@X&X@X&X&X@X@X&X&X&X&X",
"&X&X&X&X@X&X&X&X@X&X@X&X&X&X&X@X@X&X@X@X&X|.u = t.i.y.y.r.a.XX.Xi.H.&Xm.  U &XXX@X@X@X@X@X@X@X@X@X&X&X@X@X&X@X@X&X&X@X@X@X&X@X&X",
"&X&X&X@X&X&X&X&X&X&X&X&X&X&X&X&X&X&X&X@X&X|.p + y y , y = d }..Xi.H.&Xm.  U &XXX@X&X&X@X@X&X@X&X&X&X&X&X&X&X@X@X&X&X&X&X&X&X&X&X",
"&X&X&X&X@X@X&X&X&X&X&X&X&X&X&X@X&X&X@X@X&X|.p + w w 0 t 0 z ]..Xi.H.&Xm.  U &XXX@X@X@X@X@X&X&X&X&X@X&X&X&X&X&X&X&X@X&X&X@X&X&X&X",
"&X&X&X&X&X&X&X&X&X&X&X&X&X&X&X&X&X@X&X@X&X|.u & } O.4.B.5.A. X{.i.H.&Xm.  U &XXX&X@X@X&X&X&X&X&X&X@X&X&X@X@X&X&X&X@X&X&X&X&X@X&X",
"&X&X&X@X&X&X&X&X&X&X&X&X&X&X@X&X&X&X@X@X&XXXu & ' X.4.5.5.A. X{.i.H.&Xm.  U &XXX@X&X&X@X&X&X&X@X&X@X&X&X&X&X&X&X&X&X&X&X&X&X&X&X",
"&X&X&X&X&X@X&X&X&X&X&X&X&X@X@X&X&X&X@X@X&X|.u * ' X.4.5.5.N. X{.i.H.&Xm.  U &XXX&X@X@X@X@X&X&X@X&X@X@X&X@X&X@X@X@X@X@X&X&X@X&X&X",
"&X&X&X@X&X&X&X&X&X&X&X&X&X&X&X&X&X&X@X@X&X|.u * ' X.4.5.5.N. X[.i.J.&Xn.  U &XXX@X@X&X@X@X&X&X&X&X&X@X&X&X&X&X@X&X&X@X&X&X&X@X&X",
"&X&X@X@X@X@X@X@X@X&X@X&X&X@X&X&X@X&X&X@X&X|.u & ' X.4.5.5.N.OX.Xd.L.&Xm.  U &XXX@X@X&X@X@X&X&X@X&X&X&X&X@X@X&X@X&X@X@X@X@X@X@X&X",
"&X&X&X@X@X@X@X&X&X&X&X&X&X&X&X@X@X@X@X@X&X|.p : `  .3.4.4.6.V.n.9.q.I.g.  U &XXX@X@X@X@X@X@X@X&X&X@X&X@X@X&X@X&X@X@X&X@X@X&X@X&X",
"&X&X&X&X@X&X&X&X&X@X&X&X&X&X&X&X&X@X@X@X&X|.7 .  .@.C.C.Z.2.&   o o X +   Y &XXX&X@X&X@X&X&X@X@X&X&X@X&X&X&X&X&X&X&X&X&X&X&X&X&X",
"&X&X&X&X@X&X&X&X&X&X&X&X&X&X&X&X&X&X@X@X&XXXR K ! ! / / ) ~ : $ - - - ;   I &XXX&X&X&X&X@X&X&X&X@X&X&X&X&X&X&X&X&X@X&X&X&X&X&X&X",
"&X&X&X&X&X&X&X&X&X&X&X&X&X@X@X&X&X@X@X@X@X@X&X'.-   O O O O $ & & & & -   I &XXX&X&X&X@X@X&X&X&X&X@X&X&X&X&X&X&X&X@X&X&X&X&X&X&X",
"&X@X@X&X&X@X&X&X&X&X&X&X&X@X@X&X&X@X&X@X@X@X@X].g.T : & ; ; ; - - & $ ; X U &XXX&X&X&X@X&X&X@X&X&X&X@X&X&X@X&X&X&X&X&X&X@X@X&X&X",
"&X&X&X&X&X&X&X&X&X&X&X&X&X&X@X@X&X&X@X&X&X&X&X@X&X'.7 + O O O O O O & $   K &XXX@X@X&X&X&X&X&X&X&X&X&X&X&X@X&X&X&X&X&X@X&X&X@X&X",
"&X&X&X&X&X@X&X&X&X&X&X@X&X&X@X&X&X&X&X@X@X@X&X@X&X_.7 & M J G G J b X s T v.&XoX@X&X&X&X&X@X@X&X&X@X&X&X@X@X&X@X&X&X&X&X@X&X@X&X",
"&X&X&X&X&X&X&X&X&X&X&X@X&X&X&X&X&X@X@X@X@X&X@X@X&X'.> ; <.7.7.7.Z.$.  D &XoX@X@X&X@X@X@X@X&X&X&X@X@X@X&X@X&X&X@X@X&X&X&X&X&X&X&X",
"&X&X&X&X@X&X&X&X&X&X&X&X@X&X&X&X&X@X&X&X&X&X@X@X&X'.> ; F.Q.E.E.~.l.  D &X|.&X@X@X@X@X@X@X&X&X&X&X&X&X@X@X&X@X&X&X@X&X@X&X&X&X&X",
"&X&X&X&X&X@X&X@X&X&X&X&X&X@X&X&X&X&X&X&X&X@X@X@X&X'.> ; `.&X&X&X&XI.  D &XXX&X@X@X&X@X@X&X&X&X&X&X@X&X@X@X@X@X&X&X&X&X&X@X&X&X&X",
"&X&X&X@X&X&X&X&X&X&X@X&X&X&X&X&X&X&X@X@X&X@X@X@X&X'.> - G.P.K.K.P.q.  D &XXX@X@X&X@X@X@X&X&X&X@X@X&X&X&X&X@X&X&X&X&X&X&X&X&X&X&X",
"&X&X&X&X&X&X&X&X&X&X&X&X&X&X&X&X&X&X&X&X&X&X&X@X&X'.> - w.d.i.i.d.0.  D &X@X@X@X&X&X&X&X&X&X&X&X@X&X&X&X&X&X&X&X&X&X&X&X&X&X&X&X",
"&X&X&X@X&X&X&X&X&X&X@X&X&X&X@X&X&X&X&X&X&X@X@X@X&X'.7 $ g f f f f d + i h f.&XXX&X&X&X&X&X&X&X&X&X&X&X&X&X&X&X&X&X&X&X&X&X&X&X&X",
"&X@X&X&X&X&X&X&X&X&X&X&X&X&X@X@X&X&X&X&X&X&X&X@X&X'.7 + o o o o o o & &   P &XXX@X&X&X@X&X&X&X@X&X&X&X&X&X&X&X&X&X&X&X&X&X&X&X&X",
"&X&X&X&X&X&X&X&X&X&X&X&X&X&X&X&X&X&X@X@X&X@X&X@X&X'.7 + - - - - - & $ -   U &XXX&X&X&X&X&X&X&X&X&X&X&X&X&X&X&X&X&X&X&X&X&X&X&X&X",
"&X&X&X@X@X&X&X&X&X&X&X&X&X@X&X&X&X&X&X&X&X&X&X@X&X'.7 $ - & & & & & - ;   U &XXX&X&X&X@X&X&X&X&X&X&X&X&X&X&X&X&X&X&X&X&X@X&X&X&X",
"&X&X&X&X&X&X&X&X&X&X&X&X&X&X&X&X&X&X&X&X&X&X&X@X&XXXT.T.T.T.T.T.T.T.T.T.R.`.&X@X@X@X@X@X&X&X&X&X&X&X&X&X&X@X&X&X&X&X&X&X&X&X&X&X",
"&X&X&X&X&X&X&X&X&X&X&X&X&X&X&X&X&X&X&X@X&X&X&X@X@X&X&X&X&X&X&X&X&X&X&X&X&X&X@X&X&X&X@X@X&X&X&X&X&X&X&X&X&X&X&X&X&X&X&X&X&X&X&X&X",
"&X&X&X@X&X&X&X&X&X&X&X&X&X&X&X&X&X&X&X&X&X&X&X@X&X@X@XoXoXoXoXoXoXoXoXoXoX@X&X&X&X&X&X@X&X&X&X&X&X&X&X&X&X&X&X&X&X&X&X&X&X&X@X&X",
"&X&X&X@X&X&X&X&X&X&X&X&X&X&X&X&X&X&X&X@X&X@X@X&X&X@X@X&X@X@X&X&X&X&X&X&X@X&X&X&X@X&X&X&X&X&X&X&X&X&X&X&X&X&X&X&X&X&X&X&X&X&X&X&X",
"&X&X&X&X&X&X@X&X&X&X&X&X&X&X&X&X&X&X&X&X&X&X@X&X&X&X@X&X&X@X&X&X&X&X&X&X&X&X&X&X@X&X&X&X&X&X&X&X&X&X&X&X&X&X&X&X&X&X&X&X&X&X&X&X",
"&X&X&X&X&X&X&X&X&X&X&X&X&X&X&X&X&X&X&X&X&X&X&X&X&X&X&X&X&X&X&X&X&X&X&X&X&X&X&X&X&X&X&X&X&X&X&X&X&X&X&X&X&X&X&X&X&X&X&X&X&X&X&X&X"
};