/* XPM */
static char * ronaldo_xpm[] = {
/* columns rows colors chars-per-pixel */
"64 64 213 2 ",
"   c #000200",
".  c #010A03",
"X  c #090E07",
"o  c #030C0A",
"O  c #070C08",
"+  c #0D140D",
"@  c #11150E",
"#  c #1C1709",
"$  c #0D1312",
"%  c #111713",
"&  c #1C1710",
"*  c #141913",
"=  c #1C1C14",
"-  c #1B1E18",
";  c #141A19",
":  c #26140B",
">  c #261B12",
",  c #32180B",
"<  c #0E330F",
"1  c #1E211C",
"2  c #142613",
"3  c #173A18",
"4  c #183A19",
"5  c #083411",
"6  c #23241D",
"7  c #282717",
"8  c #352E1E",
"9  c #30311F",
"0  c #2E3114",
"q  c #1E2521",
"w  c #252620",
"e  c #282C25",
"r  c #2D332E",
"t  c #31352F",
"y  c #3B3424",
"u  c #353932",
"i  c #4F1F12",
"p  c #591B11",
"a  c #751E0C",
"s  c #7C1C0D",
"d  c #651F0E",
"f  c #5B231A",
"g  c #7A220E",
"h  c #7C2512",
"j  c #72251E",
"k  c #762217",
"l  c #602417",
"z  c #433622",
"x  c #463B28",
"c  c #4E3930",
"v  c #7A2821",
"b  c #722821",
"n  c #1D431D",
"m  c #224720",
"M  c #244A22",
"N  c #2C4122",
"B  c #325D2E",
"V  c #3B413D",
"C  c #355F31",
"Z  c #2F6331",
"A  c #396734",
"S  c #336E36",
"D  c #3B6A35",
"F  c #366332",
"G  c #53452E",
"H  c #56512D",
"J  c #5B4B35",
"K  c #5E5932",
"L  c #474F38",
"P  c #665637",
"I  c #705E36",
"U  c #5A653A",
"Y  c #474943",
"T  c #4E514A",
"R  c #5C5E59",
"E  c #575A55",
"W  c #72554D",
"Q  c #586955",
"!  c #4B634A",
"~  c #706655",
"^  c #666A66",
"/  c #6B6C65",
"(  c #6C6E68",
")  c #77756D",
"_  c #7C7D76",
"`  c #7A7D78",
"'  c #757772",
"]  c #617861",
"[  c #8D261B",
"{  c #862818",
"}  c #94291A",
"|  c #9A2B1D",
" . c #B73E1F",
".. c #973932",
"X. c #A62C22",
"o. c #AB2B23",
"O. c #A72720",
"+. c #B52D26",
"@. c #BB2D27",
"#. c #BB2E28",
"$. c #B12423",
"%. c #B73228",
"&. c #B93428",
"*. c #BE3E37",
"=. c #C12F28",
"-. c #C33029",
";. c #CB362B",
":. c #97492C",
">. c #96452A",
",. c #9D5132",
"<. c #825E3F",
"1. c #A15233",
"2. c #BC4231",
"3. c #C2432C",
"4. c #D1532B",
"5. c #C5423A",
"6. c #CA5B37",
"7. c #D35C34",
"8. c #DB6C37",
"9. c #DB733D",
"0. c #866948",
"q. c #896C4B",
"w. c #846645",
"e. c #956D43",
"r. c #91724E",
"t. c #9E7144",
"y. c #9F7A53",
"u. c #957451",
"i. c #A17C54",
"p. c #A07346",
"a. c #807A6D",
"s. c #D86E42",
"d. c #D57D55",
"f. c #AD865B",
"g. c #A8865C",
"h. c #B48A5D",
"j. c #87857D",
"k. c #BB8F61",
"l. c #B68E60",
"z. c #B48D61",
"x. c #D8965D",
"c. c #DB8A4A",
"v. c #E4874A",
"b. c #EB9450",
"n. c #EE9A55",
"m. c #EE9E5B",
"M. c #E29B5D",
"N. c #EF9851",
"B. c #EFA05F",
"V. c #F5A256",
"C. c #CC9966",
"Z. c #C59666",
"A. c #CE946D",
"S. c #E79E68",
"D. c #D5A26C",
"F. c #DBA46E",
"G. c #D7A86D",
"H. c #E8A66C",
"J. c #F2AB6D",
"K. c #FFB26A",
"L. c #E4AC73",
"P. c #EAAE75",
"I. c #F5AF71",
"U. c #EEB176",
"Y. c #E3B173",
"T. c #F2B276",
"R. c #F4B579",
"E. c #F9B77B",
"W. c #FDBC7E",
"Q. c #F7B87A",
"!. c #FFC07F",
"~. c #7F8380",
"^. c #898A84",
"/. c #93938E",
"(. c #969690",
"). c #999992",
"_. c #959892",
"`. c #A4A39E",
"'. c #A7A6A1",
"]. c #A9A8A2",
"[. c #B4B2AC",
"{. c #BCBAB5",
"}. c #BBBAB5",
"|. c #FFBF82",
" X c #C0BCB3",
".X c #FFC382",
"XX c #FFC987",
"oX c #FFCB89",
"OX c #FFD08D",
"+X c #C5C3BC",
"@X c #C8C8C4",
"#X c #D4D2CD",
"$X c #D9D8D4",
"%X c #DAD9D4",
"&X c #E1DDDA",
"*X c #E4E2DE",
"=X c #EDEDE9",
"-X c #E8E7E1",
";X c #F4EEE6",
":X c #F4F1ED",
">X c #FBF4EB",
",X c #FBF9F6",
"<X c #FCFBF7",
"1X c #FBFAF6",
"2X c #FEFDF9",
"3X c #FEFDF8",
"4X c #FEFDFA",
"5X c #FEFEFA",
"6X c white",
"7X c #FFFFFE",
"8X c #FEFEFD",
"9X c #FEFDF9",
"0X c #FAF6F2",
/* pixels */
"2X2X2X2X2X2X2X2X2X2X2X2X2X2X2X2X2X2X2X2X2X2X2X2X2X2X2X2X2X2X2X2X2X2X2X2X2X2X2X2X2X2X2X2X2X2X2X2X2X2X2X2X2X2X2X2X2X2X2X2X2X2X2X2X",
"2X2X2X2X2X2X2X2X2X2X2X2X2X2X2X2X2X2X2X2X2X2X2X2X2X2X2X<X<X<X<X<X<X<X<X<X<X<X2X2X2X2X2X2X2X2X2X2X2X2X2X2X2X2X2X2X2X2X2X2X2X2X2X2X",
"2X2X2X2X2X2X2X2X2X2X2X2X2X2X2X2X2X2X2X2X2X2X2X2X2X2X6X6X6X6X6X6X6X6X6X6X6X6X2X2X2X2X2X2X2X2X2X2X2X2X2X2X2X2X2X2X2X2X2X2X2X2X2X2X",
"2X2X2X2X2X2X2X2X2X2X2X2X2X2X2X2X2X2X2X2X2X2X2X2X1X<X*X$X$X$X$X$X$X$X$X$X$X%X1X1X2X2X2X2X2X2X2X2X2X2X2X2X2X2X2X2X2X2X2X2X2X2X2X2X",
"2X2X2X2X2X2X2X2X2X2X2X2X2X2X2X2X2X2X2X2X2X2X2X2X<X6XR   % + + + + + + @ . V 6X6X2X2X2X2X2X2X2X2X2X2X2X2X2X2X2X2X2X2X2X2X2X2X2X2X",
"2X2X2X2X2X2X2X2X2X2X2X2X2X2X2X2X2X2X2X2X2X2X1X2X{.'.Y X * * * * * * * * + t `.}.3X1X2X2X2X2X2X2X2X2X2X2X2X2X2X2X2X2X2X2X2X2X2X2X",
"2X2X2X2X2X2X2X2X2X2X2X2X2X2X2X2X2X2X2X2X2X2X<X6XT   - w 6 6 6 6 6 6 6 6 w 1   Y 6X2X2X2X2X2X2X2X2X2X2X2X2X2X2X2X2X2X2X2X2X2X2X2X",
"2X2X2X2X2X2X2X2X2X2X2X2X2X2X2X2X2X2X2X2X<X6X+X/.Y = 1 - 6 6 6 6 6 6 6 6 - - + u /.}.6X3X2X2X2X2X2X2X2X2X2X2X2X2X2X2X2X2X2X2X2X2X",
"2X2X2X2X2X2X2X2X2X2X2X2X2X2X2X2X2X2X2X2X1X6X'   % ; O   $ ; % % % % % $ . . . O   R 6X1X2X2X2X2X2X2X2X2X2X2X2X2X2X2X2X2X2X2X2X2X",
"2X2X2X2X2X2X2X2X2X2X2X2X2X2X2X2X2X2X2X2X1X6X_   P r.w.w.0.q.q.q.q.q.q.0.w.w.0.P   ( 6X1X2X2X2X2X2X2X2X2X2X2X2X2X2X2X2X2X2X2X2X2X",
"2X2X2X2X2X2X2X2X2X2X2X2X2X2X2X2X2X2X2X2X1X6X_   l.XXW..X.X|..X!..X.X.X.X.XW.XXZ.  / 6X1X2X2X2X2X2X2X2X2X2X2X2X2X2X2X2X2X2X2X2X2X",
"2X2X2X2X2X2X2X2X2X2X2X2X2X2X2X2X2X2X2X2X1X6X_   f.W.P.U.U.U.T.T.T.T.U.U.U.U.W.k.  / 6X1X2X2X2X2X2X2X2X2X2X2X2X2X2X2X2X2X2X2X2X2X",
"2X2X2X2X2X2X2X2X2X2X2X2X2X2X2X2X2X2X2X2X1X6X_   f.W.E.W.W.W.R.R.R.R.W.W.W.E.W.k.  / 6X1X2X2X2X2X2X2X2X2X2X2X2X2X2X2X2X2X2X2X2X2X",
"2X2X2X2X2X2X2X2X2X2X2X2X2X2X2X2X2X2X2X2X1X6X_   f..XW z x G L.E.R.P.J x x P .Xk.  / 6X1X2X2X2X2X2X2X2X2X2X2X2X2X2X2X2X2X2X2X2X2X",
"2X2X2X2X2X2X2X2X2X2X2X2X2X2X2X2X2X2X2X2X1X6X`   f..XG + 6 - F.E.R.P.7 - @ y .Xk.  ^ 6X1X2X2X2X2X2X2X2X2X2X2X2X2X2X2X2X2X2X2X2X2X",
"2X2X2X2X2X2X2X2X2X2X2X2X2X2X2X2X2X2X<X6X{.V r.7 i.W.U.Z.J D.R.R.R.R.F.J f.U.W.f.> q.V [.6X1X2X2X2X2X2X2X2X2X2X2X2X2X2X2X2X2X2X2X",
"2X2X2X2X2X2X2X2X2X2X2X2X2X2X2X2X2X2X1X6X`.  t.z y.W.W.h.. D.W.R.R.E.P.o u..XW.f.8 t.  /.6X1X2X2X2X2X2X2X2X2X2X2X2X2X2X2X2X2X2X2X",
"2X2X2X2X2X2X2X2X2X2X2X2X2X2X2X2X2X2X1X6X'.  e.M.H.R.E.D.0.L.E.R.R.R.P.0.Z.E.R.H.x.t.  ).6X1X2X2X2X2X2X2X2X2X2X2X2X2X2X2X2X2X2X2X",
"2X2X2X2X2X2X2X2X2X2X2X2X2X2X2X2X2X2X1X6X].  e.K.T.R.R.Q..XR.R.R.R.R.R.W.E.R.R.I.K.p.  ).6X1X2X2X2X2X2X2X2X2X2X2X2X2X2X2X2X2X2X2X",
"2X2X2X2X2X2X2X2X2X2X2X2X2X2X2X2X2X2X2X2X:X=Xj.# h.W.T.R.T.R.R.R.R.R.R.T.R.T.W.Z.# ) =X=X2X2X2X2X2X2X2X2X2X2X2X2X2X2X2X2X2X2X2X2X",
"2X2X2X2X2X2X2X2X2X2X2X2X2X2X2X2X2X2X2X2X1X6X^.  f.W.T.R.R.R.T.T.T.T.R.R.R.T.W.k.  ' 6X<X2X2X2X2X2X2X2X2X2X2X2X2X2X2X2X2X2X2X2X2X",
"2X2X2X2X2X2X2X2X2X2X2X2X2X2X2X2X2X2X2X2X1X6Xj.  f..XR.R.R.R.m.n.n.m.T.R.R.R..XZ.  ) 6X1X2X2X2X2X2X2X2X2X2X2X2X2X2X2X2X2X2X2X2X2X",
"2X2X2X2X2X2X2X2X2X2X2X2X2X2X2X2X2X2X2X2X1X6X).1 g.F.P.R.R.R.B.m.m.B.T.R.T.P.F.f.q ^.6X1X2X2X2X2X2X2X2X2X2X2X2X2X2X2X2X2X2X2X2X2X",
"2X2X2X2X2X2X2X2X2X2X2X2X2X2X2X2X2X2X2X2X2X2X1X6XE   Z..XR.R.T.R.R.R.R.T..XZ.  L 6X<X2X2X2X2X2X2X2X2X2X2X2X2X2X2X2X2X2X2X2X2X2X2X",
"2X2X2X2X2X2X2X2X2X2X2X2X2X2X2X2X2X2X2X2X2X2X1X6X_ r g.C.P.R.R.R.R.R.R.P.C.g.t / 2X<X2X2X2X2X2X2X2X2X2X2X2X2X2X2X2X2X2X2X2X2X2X2X",
"2X2X2X2X2X2X2X2X2X2X2X2X2X2X2X2X2X2X2X2X2X2X6X6X4X6XE   C.W.R.R.R.R.W.D.. V 6X6X6X6X2X2X2X2X2X2X2X2X2X2X2X2X2X2X2X2X2X2X2X2X2X2X",
"2X2X2X2X2X2X2X2X2X2X2X2X2X2X2X2X2X2X2X2X<X2X$X[.}.+XT : x.I.J.J.J.J.J.x., c {.}.[.#X2X<X2X2X2X2X2X2X2X2X2X2X2X2X2X2X2X2X2X2X2X2X",
"2X2X2X2X2X2X2X2X2X2X2X2X2X2X2X2X2X2X2X2X1X6X~.  O   p { c.V.b.b.b.b.V.c.{ d   .   ^ 6X1X2X2X2X2X2X2X2X2X2X2X2X2X2X2X2X2X2X2X2X2X",
"2X2X2X2X2X2X2X2X2X2X2X2X2X2X2X2X2X2X<X6X#X_.~ p f f { } 6.s.b.n.n.b.s.6.| [ f f p W _.#X6X2X2X2X2X2X2X2X2X2X2X2X2X2X2X2X2X2X2X2X",
"2X2X2X2X2X2X2X2X2X2X2X2X2X2X2X2X2X2X1X6X`.  k ;.#.-.#.#.$.+.v.v.v.v.+.$.+.#.-.#.;.k   /.6X1X2X2X2X2X2X2X2X2X2X2X2X2X2X2X2X2X2X2X",
"2X2X2X2X2X2X2X2X2X2X2X2X2X2X2X2X2X2X1X6X'.. b #.o.+.+.+.+.+.%.&.&.%.%.3.&.+.+.+.#.v   ).6X1X2X2X2X2X2X2X2X2X2X2X2X2X2X2X2X2X2X2X",
"2X2X2X2X2X2X2X2X2X2X2X2X2X2X2X2X2X2X1X6X'.  j =.+.#.+.+.+.+.+.+.+.+.%.8.4.+.+.+.-.v   (.6X1X2X2X2X2X2X2X2X2X2X2X2X2X2X2X2X2X2X2X",
"2X2X2X2X2X2X2X2X2X2X2X2X2X2X2X2X2X2X1X6X'.  j =.| } o.+.+.+.+.+.+.+.4.9.8.2.[ | -.v   (.6X1X2X2X2X2X2X2X2X2X2X2X2X2X2X2X2X2X2X2X",
"2X2X2X2X2X2X2X2X2X2X2X2X2X2X2X2X2X2X1X6X`.  j -.[ g X.+.+.+.+.+.+.+.4.A.d. .a { -.v   (.6X1X2X3X2X2X2X2X2X2X2X2X2X2X2X2X2X2X2X2X",
"2X2X2X2X2X2X2X2X2X2X2X2X2X2X2X2X2X2X1X6X`.  f | { h X.+.+.+.+.+.+.+.%.8.7.X.h { } l   /.6X1X2X2X2X2X2X2X2X2X2X2X2X2X2X2X2X2X2X2X",
"2X2X2X2X2X2X2X2X2X2X2X2X2X2X2X2X2X2X1X6X`.  i g h h X.+.+.+.+.+.+.+.%.3.;.X.h h g f   (.6X1X2X2X2X2X2X2X2X2X2X2X2X2X2X2X2X2X2X2X",
"2X2X2X2X2X2X2X2X2X2X2X2X2X2X2X2X2X2X1X6X'.  <.H.>.a X.+.+.+.+.+.+.+.+.+.+.o.g >.S.w.  ).6X1X2X2X2X2X2X2X2X2X2X2X2X2X2X2X2X2X2X2X",
"2X2X2X2X2X2X2X2X2X2X2X2X2X2X2X2X2X2X1X6X'.  u.OX1.a X.+.+.+.+.+.+.+.+.+.+.o.a :.oXi.  ).6X1X2X2X2X2X2X2X2X2X2X2X2X2X2X2X2X2X2X2X",
"2X2X2X2X2X2X2X2X2X2X2X2X2X2X2X2X2X2X1X6X'.  r..X,.a X.#.+.+.+.+.+.+.+.+.+.o.a :..Xy.  ).6X1X2X2X2X2X2X2X2X2X2X2X2X2X2X2X2X2X2X2X",
"2X2X2X2X2X2X2X2X2X2X2X2X2X2X2X2X2X2X1X6X'.  r.XX,.a X.#.+.+.+.+.+.+.+.+.+.o.a :..Xi.  ).6X1X2X2X2X2X2X2X2X2X2X2X2X2X2X2X2X2X2X2X",
"2X2X2X2X2X2X2X2X2X2X2X2X2X2X2X2X2X2X1X6X'.  r.XX,.a X.+.+.+.+.+.+.+.+.+.+.X.a :..Xi.  ).6X1X2X2X2X2X2X2X2X2X2X2X2X2X2X2X2X2X2X2X",
"2X2X2X2X2X2X2X2X2X2X2X2X2X2X2X2X2X2X1X6X'.  r.XX1.s o.@.@.@.@.@.@.@.@.@.@.o.s :..Xy.  ).6X1X2X2X2X2X2X2X2X2X2X2X2X2X2X2X2X2X2X2X",
"2X2X2X2X2X2X2X2X2X2X2X2X2X2X2X2X2X2X1X6X].  r..XI 0 H K K K K K K K K K P H 0 P .Xy.  ).6X1X2X2X2X2X2X2X2X2X2X2X2X2X2X2X2X2X2X2X",
"2X2X2X2X2X2X2X2X2X2X2X2X2X2X2X2X2X2X1X6X`.  r.OXU 5 Z S S S S S S S S S S Z 5 L oXi.  /.6X1X2X2X2X2X2X2X2X2X2X2X2X2X2X2X2X2X2X2X",
"2X2X2X2X2X2X2X2X2X2X2X2X2X2X2X2X2X2X2X6X*X@Xa.z N 3 B D D D M m m M A D D C 4 N z / @X*X6X2X2X2X2X2X2X2X2X2X2X2X2X2X2X2X2X2X2X2X",
"2X2X2X2X2X2X2X2X2X2X2X2X2X2X2X2X2X2X2X2X1X6X`   4 4 B D D D n 3 3 4 A D D B n 4   ^ 6X<X2X2X2X2X2X2X2X2X2X2X2X2X2X2X2X2X2X2X2X2X",
"2X2X2X2X2X2X2X2X2X2X2X2X2X2X2X2X2X2X2X2X<X2X-X*XQ < B D D D m 2 2 n A D D F < ! &X*X2X<X2X2X2X2X2X2X2X2X2X2X2X2X2X2X2X2X2X2X2X2X",
"2X2X2X2X2X2X2X2X2X2X2X2X2X2X2X2X2X2X2X2X2X2X2X6X] < C D D D m 2 2 n A D D F < Q 6X2X2X2X2X2X2X2X2X2X2X2X2X2X2X2X2X2X2X2X2X2X2X2X",
"2X2X2X2X2X2X2X2X2X2X2X2X2X2X2X2X2X2X2X2X2X2X1X6XQ   g.Y.G.G.9 + + 7 D.G.L.f.. T 6X1X2X2X2X2X2X2X2X2X2X2X2X2X2X2X2X2X2X2X2X2X2X2X",
"2X2X2X2X2X2X2X2X2X2X2X2X2X2X2X2X2X2X2X2X2X2X1X6XR   k..XE.E.8 + + 7 R.E.|.Z.  T 6X<X2X2X2X2X2X2X2X2X2X2X2X2X2X2X2X2X2X2X2X2X2X2X",
"2X2X2X2X2X2X2X2X2X2X2X2X2X2X2X2X2X2X2X2X2X2X1X6XR    X3X>X>Xt X + e ;X>X3X+X  T 6X<X2X2X2X2X2X2X2X2X2X2X2X2X2X2X2X2X2X2X2X2X2X2X",
"2X2X2X2X2X2X2X2X2X2X2X2X2X2X2X2X2X2X2X2X2X2X1X6XR   {.2X:X>Xu X + e ;X0X6X@X  T 6X<X2X2X2X2X2X2X2X2X2X2X2X2X2X2X2X2X2X2X2X2X2X2X",
"2X2X2X2X2X2X2X2X2X2X2X2X2X2X2X2X2X2X2X2X2X2X<X6XR   ..5.*.*.> + + > 2.5.5...  T 6X2X2X2X2X2X2X2X2X2X2X2X2X2X2X2X2X2X2X2X2X2X2X2X",
"2X2X2X2X2X2X2X2X2X2X2X2X2X2X2X2X2X2X2X2X2X2X:X3XE   { +.O.o.> + + : O.o.+.[ . Y 0X:X2X2X2X2X2X2X2X2X2X2X2X2X2X2X2X2X2X2X2X2X2X2X",
"2X2X2X2X2X2X2X2X2X2X2X2X2X2X2X2X2X2X2X2X1X6Xj.* - + & & & & @ + + @ & & & & + - * ( 6X1X2X2X2X2X2X2X2X2X2X2X2X2X2X2X2X2X2X2X2X2X",
"2X2X2X2X2X2X2X2X2X2X2X2X2X2X2X2X2X2X2X2X1X6X'   * % + + + + @ % % @ + + + + * *   R 6X1X2X2X2X2X2X2X2X2X2X2X2X2X2X2X2X2X2X2X2X2X",
"2X2X2X2X2X2X2X2X2X2X2X2X2X2X2X2X2X2X2X2X1X6X'   + X X X X X X X X X X X X X X +   R 6X1X2X2X2X2X2X2X2X2X2X2X2X2X2X2X2X2X2X2X2X2X",
"2X2X2X2X2X2X2X2X2X2X2X2X2X2X2X2X2X2X2X2X1X6X^.w u t t t t t t t t t t t t t t u w ' 6X<X2X2X2X2X2X2X2X2X2X2X2X2X2X2X2X2X2X2X2X2X",
"2X2X2X2X2X2X2X2X2X2X2X2X2X2X2X2X2X2X2X2X2X2X<X1X<X1X1X1X1X1X1X<X1X1X1X1X1X1X1X<X1X<X2X2X2X2X2X2X2X2X2X2X2X2X2X2X2X2X2X2X2X2X2X2X",
"2X2X2X2X2X2X2X2X2X2X2X2X2X2X2X2X2X2X2X2X2X2X2X2X2X2X2X2X2X2X2X2X2X2X2X2X2X2X2X2X2X2X2X2X2X2X2X2X2X2X2X2X2X2X2X2X2X2X2X2X2X2X2X2X",
"2X2X2X2X2X2X2X2X2X2X2X2X2X2X2X2X2X2X2X2X2X2X2X2X2X2X2X2X2X2X2X2X2X2X2X2X2X2X2X2X2X2X2X2X2X2X2X2X2X2X2X2X2X2X2X2X2X2X2X2X2X2X2X2X",
"2X2X2X2X2X2X2X2X2X2X2X2X2X2X2X2X2X2X2X2X2X2X2X2X2X2X2X2X2X2X2X2X2X2X2X2X2X2X2X2X2X2X2X2X2X2X2X2X2X2X2X2X2X2X2X2X2X2X2X2X2X2X2X2X",
"2X2X2X2X2X2X2X2X2X2X2X2X2X2X2X2X2X2X2X2X2X2X2X2X2X2X2X2X2X2X2X2X2X2X2X2X2X2X2X2X2X2X2X2X2X2X2X2X2X2X2X2X2X2X2X2X2X2X2X2X2X2X2X2X",
"2X2X2X2X2X2X2X2X2X2X2X2X2X2X2X2X2X2X2X2X2X2X2X2X2X2X2X2X2X2X2X2X2X2X2X2X2X2X2X2X2X2X2X2X2X2X2X2X2X2X2X2X2X2X2X2X2X2X2X2X2X2X2X2X"
};